M48
;Layer_Color=9474304
;FILE_FORMAT=4:4
METRIC,LZ
;TYPE=PLATED
T01F00S00C0.3000
T02F00S00C0.6000
T03F00S00C0.6500
T04F00S00C1.0000
T05F00S00C3.0000
;TYPE=NON_PLATED
T06F00S00C0.9000
%
T01
X0043Y007375
X004525Y00745
X00485Y00755
X00495
X005125Y007525
X00495Y007325
X005125Y00705
X005325Y006975
X005525
X005625Y0069
X006Y007
X006325Y007075
X0065
X00715
X007175Y00675
X00735Y00655
X0076Y0068
X0077Y006725
X0079Y006625
X00735Y006
X00645Y00605
X006525Y00625
X006425Y006325
X005925Y00615
X005725
X0057Y0073092
X0058Y00735
X00573752Y00748288
X0058Y0076
X005825Y0077
X005675Y007675
X00565Y007875
X00555Y00745
X005425Y007375
X0059Y00755
X005975Y0074908
X006075Y007625
X007Y007875
X007575
Y00755
X006975Y007275
X00485Y0077
X004925Y008275
X0049Y008725
Y008875
X005175Y00895
X00525Y008875
X00525856Y008775
X005075Y0087
X0055Y008625
X005475Y008425
X00555Y00835
X0055Y008225
X005925Y008175
X005975Y008075
X006125Y0081
X00615Y008275
X0063Y008175
X006275Y008025
X006425Y008275
Y008425
X006525Y008775
X006725Y008625
Y008225
Y007975
X007325Y0082
X007225Y009625
X00685Y00955
X006575Y0097
X0065Y00915
X0058Y0092
Y008975
X005725Y00905
X005825Y0088
X005875Y007975
X0041746Y00805
X005925Y01075
X006075
X006925Y010825
X0076Y010975
X007875Y01015
T02
X00825Y00635
Y0066
Y006825
Y007
Y0072
Y007425
Y0076
Y0078
X0085
Y0076
Y007425
Y0072
Y007
Y006825
Y0066
Y00635
X007475
Y006075
X00575Y006375
X00535Y00645
X0047Y0063
X0046Y00665
X004625Y006825
X004175Y006875
X0042Y00665
X00425Y008425
X004525Y0084
X0045Y008225
X0067Y008775
X00775Y0088
X0077Y008525
X0078Y00835
X0076Y008025
X00765Y009025
X006Y00965
Y0099
Y01015
Y0104
X005875Y010875
X005225Y010975
X00505
X004875
X0047
X004525
X004325
X0053Y0107
X008425Y0105
X00845Y00965
X008025Y0088
T03
X0082Y00919
Y00954
Y01015
Y0105
T04
X005767Y00575
X006021
X006275
X006529
X006825
X007079
X007333
X007587
X004Y007788
Y008042
Y008296
Y00855
Y008804
X00419Y009925
X00495
X008425Y008725
Y008471
Y008217
T05
X00855Y00575
X00395Y011025
T06
X00424Y0061
X00504
M30
