G04*
G04 #@! TF.GenerationSoftware,Altium Limited,Altium Designer,24.2.2 (26)*
G04*
G04 Layer_Color=255*
%FSLAX44Y44*%
%MOMM*%
G71*
G04*
G04 #@! TF.SameCoordinates,98A400C0-08DE-4AD7-B425-4E8C3969B8A2*
G04*
G04*
G04 #@! TF.FilePolarity,Positive*
G04*
G01*
G75*
%ADD14R,1.8000X1.2300*%
%ADD15R,0.9500X2.6000*%
%ADD16R,4.9000X6.2000*%
%ADD17R,0.3000X1.4500*%
%ADD18R,1.4500X0.3000*%
%ADD19R,1.9000X1.6000*%
%ADD20R,1.6000X1.4000*%
%ADD21R,1.2000X2.2000*%
%ADD22R,1.2000X1.4000*%
%ADD23R,0.7000X1.6000*%
%ADD24R,1.3000X1.7500*%
%ADD25R,2.7000X2.6000*%
%ADD26R,0.2500X0.8000*%
%ADD27R,0.8000X0.2500*%
%ADD28R,0.5000X0.3500*%
%ADD29R,1.6000X1.9000*%
%ADD30R,1.1000X1.8000*%
%ADD31R,1.3000X1.1000*%
%ADD32R,1.7500X1.3000*%
%ADD51C,3.0000*%
%ADD55C,1.7000*%
%ADD56R,1.7000X1.7000*%
%ADD57C,2.0000*%
%ADD58R,1.7000X1.7000*%
D14*
X760000Y1082500D02*
D03*
X733800D02*
D03*
D03*
X730000Y935000D02*
D03*
D03*
X703800D02*
D03*
D15*
X697200Y971000D02*
D03*
X742800D02*
D03*
X622200Y991000D02*
D03*
X667800D02*
D03*
D16*
X720000Y1036000D02*
D03*
X645000Y1056000D02*
D03*
D17*
X587500Y867250D02*
D03*
X592500D02*
D03*
X597500D02*
D03*
X602500D02*
D03*
X607500D02*
D03*
X612500D02*
D03*
X617500D02*
D03*
X622500D02*
D03*
X627500D02*
D03*
X632500D02*
D03*
X637500D02*
D03*
X642500D02*
D03*
Y782750D02*
D03*
X637500D02*
D03*
X632500D02*
D03*
X627500D02*
D03*
X622500D02*
D03*
X617500D02*
D03*
X612500D02*
D03*
X607500D02*
D03*
X602500D02*
D03*
X597500D02*
D03*
X592500D02*
D03*
X587500D02*
D03*
D18*
X657250Y852500D02*
D03*
Y847500D02*
D03*
Y842500D02*
D03*
Y837500D02*
D03*
Y832500D02*
D03*
Y827500D02*
D03*
Y822500D02*
D03*
Y817500D02*
D03*
Y812500D02*
D03*
Y807500D02*
D03*
Y802500D02*
D03*
Y797500D02*
D03*
X572750D02*
D03*
Y802500D02*
D03*
Y807500D02*
D03*
Y812500D02*
D03*
Y817500D02*
D03*
Y822500D02*
D03*
Y827500D02*
D03*
Y832500D02*
D03*
Y837500D02*
D03*
Y842500D02*
D03*
Y847500D02*
D03*
Y852500D02*
D03*
D19*
X580000Y690000D02*
D03*
D03*
Y659000D02*
D03*
X432500Y807500D02*
D03*
Y776500D02*
D03*
D03*
X575000Y1057500D02*
D03*
Y1026500D02*
D03*
D03*
D20*
X542000Y710000D02*
D03*
D21*
X551000Y614000D02*
D03*
X396000Y614000D02*
D03*
D22*
Y709000D02*
D03*
D23*
X408000Y715000D02*
D03*
X419000D02*
D03*
X430000D02*
D03*
X441000D02*
D03*
X452000D02*
D03*
X463000D02*
D03*
X474000D02*
D03*
X485000D02*
D03*
X496000D02*
D03*
D24*
X649000Y742500D02*
D03*
X621000D02*
D03*
X729500Y710000D02*
D03*
X757500D02*
D03*
X729500Y735000D02*
D03*
X757500D02*
D03*
X507000Y855000D02*
D03*
X535000D02*
D03*
X507000Y792500D02*
D03*
X535000D02*
D03*
X715000Y772500D02*
D03*
X687000D02*
D03*
X715000Y803500D02*
D03*
X687000D02*
D03*
X715000Y834500D02*
D03*
X687000D02*
D03*
X715000Y865500D02*
D03*
X687000D02*
D03*
X715500Y897500D02*
D03*
X687500D02*
D03*
D25*
X635000Y675000D02*
D03*
D26*
X647500Y655500D02*
D03*
X642500D02*
D03*
X637500D02*
D03*
X632500D02*
D03*
X627500D02*
D03*
X622500D02*
D03*
Y694500D02*
D03*
X627500D02*
D03*
X632500D02*
D03*
X637500D02*
D03*
X642500D02*
D03*
X647500D02*
D03*
D27*
X615500Y662500D02*
D03*
Y667500D02*
D03*
Y672500D02*
D03*
Y677500D02*
D03*
Y682500D02*
D03*
Y687500D02*
D03*
X654500D02*
D03*
Y682500D02*
D03*
Y677500D02*
D03*
Y672500D02*
D03*
Y667500D02*
D03*
Y662500D02*
D03*
D28*
X735000Y687000D02*
D03*
Y680500D02*
D03*
Y674000D02*
D03*
Y667500D02*
D03*
X749500Y680500D02*
D03*
Y674000D02*
D03*
Y667500D02*
D03*
Y687000D02*
D03*
D29*
X641000Y895000D02*
D03*
X610000D02*
D03*
D03*
X702500Y635000D02*
D03*
X671500D02*
D03*
D03*
D30*
X542500Y997500D02*
D03*
Y935500D02*
D03*
X579500D02*
D03*
Y997500D02*
D03*
D31*
X532655Y815929D02*
D03*
X509655D02*
D03*
X532500Y835000D02*
D03*
X509609Y834837D02*
D03*
D32*
X542500Y1024500D02*
D03*
Y1052500D02*
D03*
X627500Y637500D02*
D03*
Y609500D02*
D03*
X702500Y659500D02*
D03*
Y687500D02*
D03*
X677500Y659500D02*
D03*
Y687500D02*
D03*
X667500Y927000D02*
D03*
Y955000D02*
D03*
X622500Y927000D02*
D03*
Y955000D02*
D03*
D51*
X855000Y575000D02*
D03*
X395000Y1102500D02*
D03*
D55*
X400000Y880400D02*
D03*
Y855000D02*
D03*
Y804200D02*
D03*
Y829600D02*
D03*
X842500Y847100D02*
D03*
Y872500D02*
D03*
X682500Y575000D02*
D03*
X733300D02*
D03*
X707900D02*
D03*
X576700D02*
D03*
X627500D02*
D03*
X602100D02*
D03*
X495000Y992500D02*
D03*
X419000D02*
D03*
D56*
X400000Y778800D02*
D03*
X842500Y821700D02*
D03*
D57*
X820000Y1015000D02*
D03*
Y1050000D02*
D03*
Y919000D02*
D03*
Y954000D02*
D03*
D58*
X758700Y575000D02*
D03*
X652900D02*
D03*
M02*
