G04*
G04 #@! TF.GenerationSoftware,Altium Limited,Altium Designer,24.2.2 (26)*
G04*
G04 Layer_Color=32768*
%FSLAX44Y44*%
%MOMM*%
G71*
G04*
G04 #@! TF.SameCoordinates,98A400C0-08DE-4AD7-B425-4E8C3969B8A2*
G04*
G04*
G04 #@! TF.FilePolarity,Positive*
G04*
G01*
G75*
%ADD12C,0.2540*%
%ADD13C,0.1000*%
%ADD61C,0.0500*%
G36*
X780902Y892517D02*
X783060Y890360D01*
X780885D01*
X780902Y890378D01*
Y892517D01*
X784543D01*
X786683Y890378D01*
X780902D01*
Y892517D01*
X780973Y892588D01*
Y894177D01*
X782405D01*
X784433Y892150D01*
X780902Y892517D01*
D02*
G37*
G36*
Y988518D02*
X783060Y986360D01*
X780885D01*
X780902Y986377D01*
Y988518D01*
X784543D01*
X786683Y986377D01*
X780902D01*
Y988518D01*
X780973Y988587D01*
Y990178D01*
X782405D01*
X784433Y988150D01*
X780902Y988518D01*
D02*
G37*
D12*
X508309Y815587D02*
G03*
X508309Y815587I-1000J0D01*
G01*
X387000Y924500D02*
Y1061500D01*
X524000Y924500D02*
Y1061500D01*
X387000D02*
X524000D01*
X387000Y924500D02*
X524000D01*
D13*
X720550Y1071500D02*
Y1093500D01*
Y1071500D02*
X773800D01*
Y1093500D01*
X720550D02*
X773800D01*
X721860Y1087390D02*
X729480D01*
X725670Y1083580D02*
Y1091200D01*
X685500Y956000D02*
X754500D01*
X685500Y1069000D02*
X754500D01*
X685500Y956000D02*
Y1069000D01*
X754500Y956000D02*
Y1069000D01*
X720000Y1007500D02*
Y1017500D01*
X715000Y1012500D02*
X725000D01*
X610500Y976000D02*
X679500D01*
X610500Y1089000D02*
X679500D01*
X610500Y976000D02*
Y1089000D01*
X679500Y976000D02*
Y1089000D01*
X645000Y1027500D02*
Y1037500D01*
X640000Y1032500D02*
X650000D01*
X615000Y820000D02*
Y830000D01*
X610000Y825000D02*
X620000D01*
X563000Y773000D02*
X667000D01*
X563000Y877000D02*
X667000D01*
Y773000D02*
Y877000D01*
X563000Y773000D02*
Y877000D01*
X568000Y650000D02*
Y701000D01*
X593000Y650000D02*
Y701000D01*
X568000Y650000D02*
X593000D01*
X568000Y701000D02*
X593000D01*
X413500Y766050D02*
Y893550D01*
X387750Y766050D02*
Y893550D01*
X413500D01*
X387750Y766050D02*
X413500D01*
X391660Y734248D02*
X554160D01*
X556660D01*
Y564248D02*
Y734248D01*
X386660Y564248D02*
X556660D01*
X386660D02*
Y734248D01*
X391660D01*
X780902Y986377D02*
Y988518D01*
Y986377D02*
X858720D01*
X858812Y986470D01*
Y1076170D01*
X780902D02*
X858812D01*
X780902Y988518D02*
Y1076170D01*
Y890378D02*
Y892517D01*
Y890378D02*
X858720D01*
X858812Y890470D01*
Y980170D01*
X780902D02*
X858812D01*
X780902Y892517D02*
Y980170D01*
X635000Y737500D02*
Y747500D01*
X630000Y742500D02*
X640000D01*
X635000Y670000D02*
Y680000D01*
X630000Y675000D02*
X640000D01*
X609000Y701000D02*
X661000D01*
X609000Y649000D02*
X661000D01*
X609000D02*
Y701000D01*
X661000Y649000D02*
Y701000D01*
X599000Y883000D02*
Y908000D01*
X650000Y883000D02*
Y908000D01*
X599000D02*
X650000D01*
X599000Y883000D02*
X650000D01*
X533500Y1010750D02*
X588000D01*
X588250Y1010500D01*
Y922750D02*
Y1010500D01*
X533500Y922750D02*
X588250D01*
X533500D02*
Y1010750D01*
X829250Y808200D02*
Y885950D01*
X855000Y808450D02*
Y885950D01*
X829250D02*
X855000D01*
X829250Y808200D02*
X854750D01*
X855000Y808450D01*
X419500Y765500D02*
X444500D01*
X419500Y816500D02*
X444500D01*
X419500Y765500D02*
Y816500D01*
X444500Y765500D02*
Y816500D01*
X501855Y808719D02*
Y841952D01*
X540646D01*
Y808719D02*
Y841952D01*
X501855Y808719D02*
X540646D01*
X738500Y710000D02*
X748500D01*
X743500Y705000D02*
Y715000D01*
X738500Y735000D02*
X748500D01*
X743500Y730000D02*
Y740000D01*
X562000Y1015500D02*
X587000D01*
X562000Y1066500D02*
X587000D01*
X562000Y1015500D02*
Y1066500D01*
X587000Y1015500D02*
Y1066500D01*
X542500Y1033500D02*
Y1043500D01*
X537500Y1038500D02*
X547500D01*
X668450Y562500D02*
Y588500D01*
X770950D01*
X668450Y562500D02*
X770950D01*
Y588500D01*
X562650Y562500D02*
Y588500D01*
X665150D01*
X562650Y562500D02*
X665150D01*
Y588500D01*
X627500Y618500D02*
Y628500D01*
X622500Y623500D02*
X632500D01*
X702500Y668500D02*
Y678500D01*
X697500Y673500D02*
X707500D01*
X677500Y668500D02*
Y678500D01*
X672500Y673500D02*
X682500D01*
X660500Y623000D02*
Y648000D01*
X711500Y623000D02*
Y648000D01*
X660500D02*
X711500D01*
X660500Y623000D02*
X711500D01*
X516000Y855000D02*
X526000D01*
X521000Y850000D02*
Y860000D01*
X516000Y792500D02*
X526000D01*
X521000Y787500D02*
Y797500D01*
X696000Y772500D02*
X706000D01*
X701000Y767500D02*
Y777500D01*
X696000Y803500D02*
X706000D01*
X701000Y798500D02*
Y808500D01*
X696000Y834500D02*
X706000D01*
X701000Y829500D02*
Y839500D01*
X696000Y865500D02*
X706000D01*
X701000Y860500D02*
Y870500D01*
X696500Y897500D02*
X706500D01*
X701500Y892500D02*
Y902500D01*
X738130Y926300D02*
Y933920D01*
X734320Y930110D02*
X741940D01*
X690000Y924000D02*
X743250D01*
X690000D02*
Y946000D01*
X743250D01*
Y924000D02*
Y946000D01*
X667500Y936000D02*
Y946000D01*
X662500Y941000D02*
X672500D01*
X622500Y936000D02*
Y946000D01*
X617500Y941000D02*
X627500D01*
D61*
X612000Y731000D02*
X658000D01*
X612000Y754000D02*
X658000D01*
Y731000D02*
Y754000D01*
X612000Y731000D02*
Y754000D01*
X720500Y698500D02*
Y721500D01*
X766500Y698500D02*
Y721500D01*
X720500D02*
X766500D01*
X720500Y698500D02*
X766500D01*
X720500Y723500D02*
Y746500D01*
X766500Y723500D02*
Y746500D01*
X720500D02*
X766500D01*
X720500Y723500D02*
X766500D01*
X531000Y1015500D02*
X554000D01*
X531000Y1061500D02*
X554000D01*
X531000Y1015500D02*
Y1061500D01*
X554000Y1015500D02*
Y1061500D01*
X616000Y646500D02*
X639000D01*
X616000Y600500D02*
X639000D01*
Y646500D01*
X616000Y600500D02*
Y646500D01*
X691000Y650500D02*
X714000D01*
X691000Y696500D02*
X714000D01*
X691000Y650500D02*
Y696500D01*
X714000Y650500D02*
Y696500D01*
X666000Y650500D02*
X689000D01*
X666000Y696500D02*
X689000D01*
X666000Y650500D02*
Y696500D01*
X689000Y650500D02*
Y696500D01*
X498000Y843500D02*
Y866500D01*
X544000Y843500D02*
Y866500D01*
X498000D02*
X544000D01*
X498000Y843500D02*
X544000D01*
X498000Y781000D02*
Y804000D01*
X544000Y781000D02*
Y804000D01*
X498000D02*
X544000D01*
X498000Y781000D02*
X544000D01*
X724000Y761000D02*
Y784000D01*
X678000Y761000D02*
Y784000D01*
Y761000D02*
X724000D01*
X678000Y784000D02*
X724000D01*
X724000Y792000D02*
Y815000D01*
X678000Y792000D02*
Y815000D01*
Y792000D02*
X724000D01*
X678000Y815000D02*
X724000D01*
Y823000D02*
Y846000D01*
X678000Y823000D02*
Y846000D01*
Y823000D02*
X724000D01*
X678000Y846000D02*
X724000D01*
Y854000D02*
Y877000D01*
X678000Y854000D02*
Y877000D01*
Y854000D02*
X724000D01*
X678000Y877000D02*
X724000D01*
X724500Y886000D02*
Y909000D01*
X678500Y886000D02*
Y909000D01*
Y886000D02*
X724500D01*
X678500Y909000D02*
X724500D01*
X656000Y918000D02*
X679000D01*
X656000Y964000D02*
X679000D01*
X656000Y918000D02*
Y964000D01*
X679000Y918000D02*
Y964000D01*
X611000Y918000D02*
X634000D01*
X611000Y964000D02*
X634000D01*
X611000Y918000D02*
Y964000D01*
X634000Y918000D02*
Y964000D01*
M02*
