G04*
G04 #@! TF.GenerationSoftware,Altium Limited,Altium Designer,24.2.2 (26)*
G04*
G04 Layer_Color=8388736*
%FSLAX44Y44*%
%MOMM*%
G71*
G04*
G04 #@! TF.SameCoordinates,98A400C0-08DE-4AD7-B425-4E8C3969B8A2*
G04*
G04*
G04 #@! TF.FilePolarity,Negative*
G04*
G01*
G75*
%ADD19R,1.9000X1.6000*%
%ADD20R,1.6000X1.4000*%
%ADD21R,1.2000X2.2000*%
%ADD22R,1.2000X1.4000*%
%ADD23R,0.7000X1.6000*%
%ADD29R,1.6000X1.9000*%
%ADD33R,1.9000X1.3300*%
%ADD34R,1.0500X2.7000*%
%ADD35R,5.0000X6.3000*%
%ADD36R,0.4000X1.5500*%
%ADD37R,1.5500X0.4000*%
%ADD38R,1.5032X1.9532*%
%ADD39R,2.8000X2.7000*%
%ADD40R,0.3500X0.9000*%
%ADD41R,0.9000X0.3500*%
%ADD42R,0.7032X0.5532*%
%ADD43R,1.2000X1.9000*%
%ADD44R,1.4000X1.2000*%
%ADD45R,1.9532X1.5032*%
%ADD46C,1.8000*%
%ADD47R,1.8000X1.8000*%
%ADD48C,2.2032*%
%ADD49R,1.8000X1.8000*%
%ADD50C,1.9032*%
%ADD51C,3.0000*%
%ADD52C,0.8032*%
%ADD53C,1.4032*%
D19*
X580000Y690000D02*
D03*
D03*
Y659000D02*
D03*
X432500Y807500D02*
D03*
Y776500D02*
D03*
D03*
X575000Y1057500D02*
D03*
Y1026500D02*
D03*
D03*
D20*
X542000Y710000D02*
D03*
D21*
X551000Y614000D02*
D03*
X396000Y614000D02*
D03*
D22*
Y709000D02*
D03*
D23*
X408000Y715000D02*
D03*
X419000D02*
D03*
X430000D02*
D03*
X441000D02*
D03*
X452000D02*
D03*
X463000D02*
D03*
X474000D02*
D03*
X485000D02*
D03*
X496000D02*
D03*
D29*
X641000Y895000D02*
D03*
X610000D02*
D03*
D03*
X702500Y635000D02*
D03*
X671500D02*
D03*
D03*
D33*
X760000Y1082500D02*
D03*
X733800D02*
D03*
D03*
X730000Y935000D02*
D03*
D03*
X703800D02*
D03*
D34*
X697200Y971000D02*
D03*
X742800D02*
D03*
X622200Y991000D02*
D03*
X667800D02*
D03*
D35*
X720000Y1036000D02*
D03*
X645000Y1056000D02*
D03*
D36*
X587500Y867250D02*
D03*
X592500D02*
D03*
X597500D02*
D03*
X602500D02*
D03*
X607500D02*
D03*
X612500D02*
D03*
X617500D02*
D03*
X622500D02*
D03*
X627500D02*
D03*
X632500D02*
D03*
X637500D02*
D03*
X642500D02*
D03*
Y782750D02*
D03*
X637500D02*
D03*
X632500D02*
D03*
X627500D02*
D03*
X622500D02*
D03*
X617500D02*
D03*
X612500D02*
D03*
X607500D02*
D03*
X602500D02*
D03*
X597500D02*
D03*
X592500D02*
D03*
X587500D02*
D03*
D37*
X657250Y852500D02*
D03*
Y847500D02*
D03*
Y842500D02*
D03*
Y837500D02*
D03*
Y832500D02*
D03*
Y827500D02*
D03*
Y822500D02*
D03*
Y817500D02*
D03*
Y812500D02*
D03*
Y807500D02*
D03*
Y802500D02*
D03*
Y797500D02*
D03*
X572750D02*
D03*
Y802500D02*
D03*
Y807500D02*
D03*
Y812500D02*
D03*
Y817500D02*
D03*
Y822500D02*
D03*
Y827500D02*
D03*
Y832500D02*
D03*
Y837500D02*
D03*
Y842500D02*
D03*
Y847500D02*
D03*
Y852500D02*
D03*
D38*
X649000Y742500D02*
D03*
X621000D02*
D03*
X729500Y710000D02*
D03*
X757500D02*
D03*
X729500Y735000D02*
D03*
X757500D02*
D03*
X507000Y855000D02*
D03*
X535000D02*
D03*
X507000Y792500D02*
D03*
X535000D02*
D03*
X715000Y772500D02*
D03*
X687000D02*
D03*
X715000Y803500D02*
D03*
X687000D02*
D03*
X715000Y834500D02*
D03*
X687000D02*
D03*
X715000Y865500D02*
D03*
X687000D02*
D03*
X715500Y897500D02*
D03*
X687500D02*
D03*
D39*
X635000Y675000D02*
D03*
D40*
X647500Y655500D02*
D03*
X642500D02*
D03*
X637500D02*
D03*
X632500D02*
D03*
X627500D02*
D03*
X622500D02*
D03*
Y694500D02*
D03*
X627500D02*
D03*
X632500D02*
D03*
X637500D02*
D03*
X642500D02*
D03*
X647500D02*
D03*
D41*
X615500Y662500D02*
D03*
Y667500D02*
D03*
Y672500D02*
D03*
Y677500D02*
D03*
Y682500D02*
D03*
Y687500D02*
D03*
X654500D02*
D03*
Y682500D02*
D03*
Y677500D02*
D03*
Y672500D02*
D03*
Y667500D02*
D03*
Y662500D02*
D03*
D42*
X735000Y687000D02*
D03*
Y680500D02*
D03*
Y674000D02*
D03*
Y667500D02*
D03*
X749500Y680500D02*
D03*
Y674000D02*
D03*
Y667500D02*
D03*
Y687000D02*
D03*
D43*
X542500Y997500D02*
D03*
Y935500D02*
D03*
X579500D02*
D03*
Y997500D02*
D03*
D44*
X532655Y815929D02*
D03*
X509655D02*
D03*
X532500Y835000D02*
D03*
X509609Y834837D02*
D03*
D45*
X542500Y1024500D02*
D03*
Y1052500D02*
D03*
X627500Y637500D02*
D03*
Y609500D02*
D03*
X702500Y659500D02*
D03*
Y687500D02*
D03*
X677500Y659500D02*
D03*
Y687500D02*
D03*
X667500Y927000D02*
D03*
Y955000D02*
D03*
X622500Y927000D02*
D03*
Y955000D02*
D03*
D46*
X400000Y880400D02*
D03*
Y855000D02*
D03*
Y804200D02*
D03*
Y829600D02*
D03*
X842500Y847100D02*
D03*
Y872500D02*
D03*
X682500Y575000D02*
D03*
X733300D02*
D03*
X707900D02*
D03*
X576700D02*
D03*
X627500D02*
D03*
X602100D02*
D03*
D47*
X400000Y778800D02*
D03*
X842500Y821700D02*
D03*
D48*
X820000Y1015000D02*
D03*
Y1050000D02*
D03*
Y919000D02*
D03*
Y954000D02*
D03*
D49*
X758700Y575000D02*
D03*
X652900D02*
D03*
D50*
X495000Y992500D02*
D03*
X419000D02*
D03*
D51*
X855000Y575000D02*
D03*
X395000Y1102500D02*
D03*
D52*
X573752Y748288D02*
D03*
X580000Y760000D02*
D03*
X582500Y770000D02*
D03*
X652500Y877500D02*
D03*
X642500Y842500D02*
D03*
X732500Y820000D02*
D03*
X642500Y827500D02*
D03*
X567500Y767500D02*
D03*
X580000Y735000D02*
D03*
X597500Y749080D02*
D03*
X590000Y755000D02*
D03*
X570000Y730920D02*
D03*
X572500Y905000D02*
D03*
X517500Y895000D02*
D03*
X492500Y827500D02*
D03*
X417460Y805000D02*
D03*
X582500Y880000D02*
D03*
X525856Y877500D02*
D03*
X550000Y862500D02*
D03*
X525000Y887500D02*
D03*
X490000D02*
D03*
Y872500D02*
D03*
X787500Y1015000D02*
D03*
X722500Y962500D02*
D03*
X657500Y970000D02*
D03*
X685000Y955000D02*
D03*
X672500Y797500D02*
D03*
X612500Y810000D02*
D03*
X672500Y822500D02*
D03*
X615000Y827500D02*
D03*
X587500Y797500D02*
D03*
X630000Y817500D02*
D03*
X592500D02*
D03*
X430000Y737500D02*
D03*
X597500Y807500D02*
D03*
X452500Y745000D02*
D03*
X495000Y755000D02*
D03*
Y732500D02*
D03*
X645000Y605000D02*
D03*
X652500Y625000D02*
D03*
X512500Y705000D02*
D03*
Y752500D02*
D03*
X565000Y787500D02*
D03*
X580000Y920000D02*
D03*
Y897500D02*
D03*
X550000Y822500D02*
D03*
X555000Y835000D02*
D03*
X507500Y870000D02*
D03*
X547500Y842500D02*
D03*
X552500Y697500D02*
D03*
X532500D02*
D03*
X607500Y762500D02*
D03*
X555000Y745000D02*
D03*
X542500Y737500D02*
D03*
X485000Y770000D02*
D03*
Y755000D02*
D03*
X757500Y787500D02*
D03*
X700000D02*
D03*
X717500Y675000D02*
D03*
X627500Y802500D02*
D03*
X600000Y700000D02*
D03*
X790000Y662500D02*
D03*
X735000Y655000D02*
D03*
X757500Y755000D02*
D03*
X697500Y727500D02*
D03*
X770000Y672500D02*
D03*
X672500Y862500D02*
D03*
X650000Y915000D02*
D03*
X760000Y680000D02*
D03*
X735000Y600000D02*
D03*
X715000Y707500D02*
D03*
X650000D02*
D03*
X592500Y615000D02*
D03*
X572500D02*
D03*
X642500Y632500D02*
D03*
X562500Y690000D02*
D03*
X632500Y707500D02*
D03*
X692500Y1082500D02*
D03*
X760000Y1097500D02*
D03*
X607500Y1075000D02*
D03*
X592500D02*
D03*
D53*
X850000Y660000D02*
D03*
Y682500D02*
D03*
X825000Y635000D02*
D03*
Y700000D02*
D03*
Y682500D02*
D03*
Y742500D02*
D03*
Y720000D02*
D03*
Y660000D02*
D03*
Y780000D02*
D03*
Y760000D02*
D03*
X842500Y1050000D02*
D03*
X845000Y965000D02*
D03*
X670000Y877500D02*
D03*
X780000Y835000D02*
D03*
X770000Y852500D02*
D03*
X765000Y902500D02*
D03*
X775000Y880000D02*
D03*
X802500D02*
D03*
X850000Y635000D02*
D03*
Y700000D02*
D03*
Y720000D02*
D03*
Y742500D02*
D03*
Y760000D02*
D03*
Y780000D02*
D03*
X760000Y802500D02*
D03*
X747500Y607500D02*
D03*
Y635000D02*
D03*
X575000Y637500D02*
D03*
X470000Y630000D02*
D03*
X535000Y645000D02*
D03*
X460000Y665000D02*
D03*
X462500Y682500D02*
D03*
X420000Y665000D02*
D03*
X417500Y687500D02*
D03*
X425000Y842500D02*
D03*
X452500Y840000D02*
D03*
X450000Y822500D02*
D03*
X600000Y965000D02*
D03*
Y990000D02*
D03*
Y1015000D02*
D03*
Y1040000D02*
D03*
X587500Y1087500D02*
D03*
X530000Y1070000D02*
D03*
X522500Y1097500D02*
D03*
X505000D02*
D03*
X487500D02*
D03*
X470000D02*
D03*
X452500D02*
D03*
X432500D02*
D03*
M02*
