G04*
G04 #@! TF.GenerationSoftware,Altium Limited,Altium Designer,24.2.2 (26)*
G04*
G04 Layer_Color=65535*
%FSLAX44Y44*%
%MOMM*%
G71*
G04*
G04 #@! TF.SameCoordinates,98A400C0-08DE-4AD7-B425-4E8C3969B8A2*
G04*
G04*
G04 #@! TF.FilePolarity,Positive*
G04*
G01*
G75*
%ADD10C,0.2500*%
%ADD11C,0.6000*%
%ADD12C,0.2540*%
%ADD13C,0.1000*%
G36*
X784680Y899668D02*
X790407Y893940D01*
X785060D01*
X783725Y895275D01*
Y899070D01*
X784680Y899668D01*
D02*
G37*
G36*
Y995667D02*
X790407Y989940D01*
X785060D01*
X783725Y991275D01*
Y995070D01*
X784680Y995667D01*
D02*
G37*
D10*
X688200Y971000D02*
G03*
X688200Y971000I-1250J0D01*
G01*
X613200Y991000D02*
G03*
X613200Y991000I-1250J0D01*
G01*
X574000Y859500D02*
G03*
X574000Y859500I-1250J0D01*
G01*
X497250Y728750D02*
G03*
X497250Y728750I-1250J0D01*
G01*
X664750Y654500D02*
G03*
X664750Y654500I-1250J0D01*
G01*
D11*
X596500Y846500D02*
G03*
X596500Y846500I-3000J0D01*
G01*
D12*
X502345Y809941D02*
G03*
X502345Y809941I-1000J0D01*
G01*
X520008Y992500D02*
G03*
X520008Y992500I-64008J0D01*
G01*
X783334Y1085832D02*
X781668Y1087498D01*
X778335D01*
X776669Y1085832D01*
Y1079168D01*
X778335Y1077502D01*
X781668D01*
X783334Y1079168D01*
X791665Y1077502D02*
Y1087498D01*
X786666Y1082500D01*
X793331D01*
X696669Y1084998D02*
Y1076668D01*
X698335Y1075002D01*
X701668D01*
X703334Y1076668D01*
Y1084998D01*
X713331Y1075002D02*
X706666D01*
X713331Y1081666D01*
Y1083332D01*
X711665Y1084998D01*
X708332D01*
X706666Y1083332D01*
X620835Y1102498D02*
Y1094168D01*
X622502Y1092502D01*
X625834D01*
X627500Y1094168D01*
Y1102498D01*
X630832Y1092502D02*
X634165D01*
X632498D01*
Y1102498D01*
X630832Y1100832D01*
X564169Y872498D02*
Y864168D01*
X565835Y862502D01*
X569168D01*
X570834Y864168D01*
Y872498D01*
X579165Y862502D02*
Y872498D01*
X574166Y867500D01*
X580831D01*
X571669Y702502D02*
Y712498D01*
X576668D01*
X578334Y710832D01*
Y707500D01*
X576668Y705834D01*
X571669D01*
X575002D02*
X578334Y702502D01*
X588331D02*
X581666D01*
X588331Y709166D01*
Y710832D01*
X586665Y712498D01*
X583332D01*
X581666Y710832D01*
X400000Y909998D02*
X396668D01*
X398334D01*
Y901668D01*
X396668Y900002D01*
X395002D01*
X393335Y901668D01*
X403332Y900002D02*
X406665D01*
X404998D01*
Y909998D01*
X403332Y908332D01*
X403334Y744998D02*
X400002D01*
X401668D01*
Y736668D01*
X400002Y735002D01*
X398335D01*
X396669Y736668D01*
X413331Y735002D02*
X406666D01*
X413331Y741666D01*
Y743332D01*
X411665Y744998D01*
X408332D01*
X406666Y743332D01*
X768334Y1069998D02*
X765002D01*
X766668D01*
Y1061668D01*
X765002Y1060002D01*
X763335D01*
X761669Y1061668D01*
X778331Y1069998D02*
X771666D01*
Y1065000D01*
X774998Y1066666D01*
X776665D01*
X778331Y1065000D01*
Y1061668D01*
X776665Y1060002D01*
X773332D01*
X771666Y1061668D01*
X768334Y974998D02*
X765002D01*
X766668D01*
Y966668D01*
X765002Y965002D01*
X763335D01*
X761669Y966668D01*
X778331Y974998D02*
X774998Y973332D01*
X771666Y970000D01*
Y966668D01*
X773332Y965002D01*
X776665D01*
X778331Y966668D01*
Y968334D01*
X776665Y970000D01*
X771666D01*
X626669Y714998D02*
Y706668D01*
X628335Y705002D01*
X631668D01*
X633334Y706668D01*
Y714998D01*
X636666Y713332D02*
X638332Y714998D01*
X641665D01*
X643331Y713332D01*
Y711666D01*
X641665Y710000D01*
X639998D01*
X641665D01*
X643331Y708334D01*
Y706668D01*
X641665Y705002D01*
X638332D01*
X636666Y706668D01*
X476669Y858332D02*
X475002Y859998D01*
X471670D01*
X470004Y858332D01*
Y851668D01*
X471670Y850002D01*
X475002D01*
X476669Y851668D01*
X480001Y850002D02*
X483333D01*
X481667D01*
Y859998D01*
X480001Y858332D01*
X488331D02*
X489998Y859998D01*
X493330D01*
X494996Y858332D01*
Y856666D01*
X493330Y855000D01*
X491664D01*
X493330D01*
X494996Y853334D01*
Y851668D01*
X493330Y850002D01*
X489998D01*
X488331Y851668D01*
X476669Y795832D02*
X475002Y797498D01*
X471670D01*
X470004Y795832D01*
Y789168D01*
X471670Y787502D01*
X475002D01*
X476669Y789168D01*
X480001Y787502D02*
X483333D01*
X481667D01*
Y797498D01*
X480001Y795832D01*
X494996Y787502D02*
X488331D01*
X494996Y794166D01*
Y795832D01*
X493330Y797498D01*
X489998D01*
X488331Y795832D01*
X812502Y848334D02*
Y845002D01*
Y846668D01*
X820832D01*
X822498Y845002D01*
Y843335D01*
X820832Y841669D01*
X812502Y851666D02*
Y858331D01*
X814168D01*
X820832Y851666D01*
X822498D01*
X485835Y829998D02*
Y828332D01*
X489168Y825000D01*
X492500Y828332D01*
Y829998D01*
X489168Y825000D02*
Y820002D01*
X495832D02*
X499165D01*
X497498D01*
Y829998D01*
X495832Y828332D01*
X741669Y657498D02*
Y649168D01*
X743335Y647502D01*
X746668D01*
X748334Y649168D01*
Y657498D01*
X758331D02*
X751666D01*
Y652500D01*
X754998Y654166D01*
X756665D01*
X758331Y652500D01*
Y649168D01*
X756665Y647502D01*
X753332D01*
X751666Y649168D01*
X579998Y1069169D02*
X570002D01*
Y1074168D01*
X571668Y1075834D01*
X575000D01*
X576666Y1074168D01*
Y1069169D01*
Y1072502D02*
X579998Y1075834D01*
X570002Y1085831D02*
Y1079166D01*
X575000D01*
X573334Y1082498D01*
Y1084165D01*
X575000Y1085831D01*
X578332D01*
X579998Y1084165D01*
Y1080832D01*
X578332Y1079166D01*
X656669Y890002D02*
Y899998D01*
X661668D01*
X663334Y898332D01*
Y895000D01*
X661668Y893334D01*
X656669D01*
X660002D02*
X663334Y890002D01*
X671665D02*
Y899998D01*
X666666Y895000D01*
X673331D01*
X437498Y824169D02*
X427502D01*
Y829168D01*
X429168Y830834D01*
X432500D01*
X434166Y829168D01*
Y824169D01*
Y827502D02*
X437498Y830834D01*
X429168Y834166D02*
X427502Y835832D01*
Y839165D01*
X429168Y840831D01*
X430834D01*
X432500Y839165D01*
Y837498D01*
Y839165D01*
X434166Y840831D01*
X435832D01*
X437498Y839165D01*
Y835832D01*
X435832Y834166D01*
X715835Y630002D02*
Y639998D01*
X720834D01*
X722500Y638332D01*
Y635000D01*
X720834Y633334D01*
X715835D01*
X719168D02*
X722500Y630002D01*
X725832D02*
X729165D01*
X727498D01*
Y639998D01*
X725832Y638332D01*
X675834Y604998D02*
X672502D01*
X674168D01*
Y596668D01*
X672502Y595002D01*
X670835D01*
X669169Y596668D01*
X684165Y595002D02*
Y604998D01*
X679166Y600000D01*
X685831D01*
X570834Y604998D02*
X567502D01*
X569168D01*
Y596668D01*
X567502Y595002D01*
X565835D01*
X564169Y596668D01*
X574166Y603332D02*
X575832Y604998D01*
X579165D01*
X580831Y603332D01*
Y601666D01*
X579165Y600000D01*
X577498D01*
X579165D01*
X580831Y598334D01*
Y596668D01*
X579165Y595002D01*
X575832D01*
X574166Y596668D01*
X539168Y1071668D02*
X537502Y1070002D01*
Y1066670D01*
X539168Y1065004D01*
X545832D01*
X547498Y1066670D01*
Y1070002D01*
X545832Y1071668D01*
X547498Y1075001D02*
Y1078333D01*
Y1076667D01*
X537502D01*
X539168Y1075001D01*
Y1083332D02*
X537502Y1084998D01*
Y1088330D01*
X539168Y1089996D01*
X540834D01*
X542500Y1088330D01*
X544166Y1089996D01*
X545832D01*
X547498Y1088330D01*
Y1084998D01*
X545832Y1083332D01*
X544166D01*
X542500Y1084998D01*
X540834Y1083332D01*
X539168D01*
X542500Y1084998D02*
Y1088330D01*
X776669Y713332D02*
X775002Y714998D01*
X771670D01*
X770004Y713332D01*
Y706668D01*
X771670Y705002D01*
X775002D01*
X776669Y706668D01*
X780001Y705002D02*
X783333D01*
X781667D01*
Y714998D01*
X780001Y713332D01*
X788332Y714998D02*
X794996D01*
Y713332D01*
X788332Y706668D01*
Y705002D01*
X776669Y738332D02*
X775002Y739998D01*
X771670D01*
X770004Y738332D01*
Y731668D01*
X771670Y730002D01*
X775002D01*
X776669Y731668D01*
X780001Y730002D02*
X783333D01*
X781667D01*
Y739998D01*
X780001Y738332D01*
X794996Y739998D02*
X791664Y738332D01*
X788332Y735000D01*
Y731668D01*
X789998Y730002D01*
X793330D01*
X794996Y731668D01*
Y733334D01*
X793330Y735000D01*
X788332D01*
X666668Y745832D02*
X665002Y747498D01*
X661670D01*
X660004Y745832D01*
Y739168D01*
X661670Y737502D01*
X665002D01*
X666668Y739168D01*
X670001Y737502D02*
X673333D01*
X671667D01*
Y747498D01*
X670001Y745832D01*
X684996Y747498D02*
X678332D01*
Y742500D01*
X681664Y744166D01*
X683330D01*
X684996Y742500D01*
Y739168D01*
X683330Y737502D01*
X679998D01*
X678332Y739168D01*
X596669Y625832D02*
X595002Y627498D01*
X591670D01*
X590004Y625832D01*
Y619168D01*
X591670Y617502D01*
X595002D01*
X596669Y619168D01*
X600001Y617502D02*
X603333D01*
X601667D01*
Y627498D01*
X600001Y625832D01*
X613330Y617502D02*
Y627498D01*
X608331Y622500D01*
X614996D01*
X699168Y705835D02*
X697502Y704169D01*
Y700836D01*
X699168Y699170D01*
X705832D01*
X707498Y700836D01*
Y704169D01*
X705832Y705835D01*
X707498Y709167D02*
Y712499D01*
Y710833D01*
X697502D01*
X699168Y709167D01*
X707498Y717498D02*
Y720830D01*
Y719164D01*
X697502D01*
X699168Y717498D01*
X674168Y704168D02*
X672502Y702502D01*
Y699170D01*
X674168Y697504D01*
X680832D01*
X682498Y699170D01*
Y702502D01*
X680832Y704168D01*
X682498Y707501D02*
Y710833D01*
Y709167D01*
X672502D01*
X674168Y707501D01*
Y715832D02*
X672502Y717498D01*
Y720830D01*
X674168Y722496D01*
X680832D01*
X682498Y720830D01*
Y717498D01*
X680832Y715832D01*
X674168D01*
X738334Y900832D02*
X736668Y902498D01*
X733335D01*
X731669Y900832D01*
Y894168D01*
X733335Y892502D01*
X736668D01*
X738334Y894168D01*
X741666D02*
X743332Y892502D01*
X746665D01*
X748331Y894168D01*
Y900832D01*
X746665Y902498D01*
X743332D01*
X741666Y900832D01*
Y899166D01*
X743332Y897500D01*
X748331D01*
X733334Y868332D02*
X731668Y869998D01*
X728335D01*
X726669Y868332D01*
Y861668D01*
X728335Y860002D01*
X731668D01*
X733334Y861668D01*
X736666Y868332D02*
X738332Y869998D01*
X741665D01*
X743331Y868332D01*
Y866666D01*
X741665Y865000D01*
X743331Y863334D01*
Y861668D01*
X741665Y860002D01*
X738332D01*
X736666Y861668D01*
Y863334D01*
X738332Y865000D01*
X736666Y866666D01*
Y868332D01*
X738332Y865000D02*
X741665D01*
X733334Y838332D02*
X731668Y839998D01*
X728335D01*
X726669Y838332D01*
Y831668D01*
X728335Y830002D01*
X731668D01*
X733334Y831668D01*
X736666Y839998D02*
X743331D01*
Y838332D01*
X736666Y831668D01*
Y830002D01*
X733334Y808332D02*
X731668Y809998D01*
X728335D01*
X726669Y808332D01*
Y801668D01*
X728335Y800002D01*
X731668D01*
X733334Y801668D01*
X743331Y809998D02*
X739998Y808332D01*
X736666Y805000D01*
Y801668D01*
X738332Y800002D01*
X741665D01*
X743331Y801668D01*
Y803334D01*
X741665Y805000D01*
X736666D01*
X733334Y775832D02*
X731668Y777498D01*
X728335D01*
X726669Y775832D01*
Y769168D01*
X728335Y767502D01*
X731668D01*
X733334Y769168D01*
X743331Y777498D02*
X736666D01*
Y772500D01*
X739998Y774166D01*
X741665D01*
X743331Y772500D01*
Y769168D01*
X741665Y767502D01*
X738332D01*
X736666Y769168D01*
X750834Y938332D02*
X749168Y939998D01*
X745835D01*
X744169Y938332D01*
Y931668D01*
X745835Y930002D01*
X749168D01*
X750834Y931668D01*
X754166Y938332D02*
X755832Y939998D01*
X759165D01*
X760831Y938332D01*
Y936666D01*
X759165Y935000D01*
X757498D01*
X759165D01*
X760831Y933334D01*
Y931668D01*
X759165Y930002D01*
X755832D01*
X754166Y931668D01*
X664168Y973334D02*
X662502Y971668D01*
Y968335D01*
X664168Y966669D01*
X670832D01*
X672498Y968335D01*
Y971668D01*
X670832Y973334D01*
X672498Y983331D02*
Y976666D01*
X665834Y983331D01*
X664168D01*
X662502Y981665D01*
Y978332D01*
X664168Y976666D01*
X616668Y975000D02*
X615002Y973334D01*
Y970002D01*
X616668Y968335D01*
X623332D01*
X624998Y970002D01*
Y973334D01*
X623332Y975000D01*
X624998Y978332D02*
Y981665D01*
Y979998D01*
X615002D01*
X616668Y978332D01*
X514169Y939998D02*
Y930002D01*
X519168D01*
X520834Y931668D01*
Y933334D01*
X519168Y935000D01*
X514169D01*
X519168D01*
X520834Y936666D01*
Y938332D01*
X519168Y939998D01*
X514169D01*
X530831Y930002D02*
X524166D01*
X530831Y936666D01*
Y938332D01*
X529165Y939998D01*
X525832D01*
X524166Y938332D01*
X390835Y1062498D02*
Y1052502D01*
X395834D01*
X397500Y1054168D01*
Y1055834D01*
X395834Y1057500D01*
X390835D01*
X395834D01*
X397500Y1059166D01*
Y1060832D01*
X395834Y1062498D01*
X390835D01*
X400832Y1052502D02*
X404165D01*
X402498D01*
Y1062498D01*
X400832Y1060832D01*
D13*
X720425Y1091375D02*
X724675D01*
X747800Y1074500D02*
Y1090500D01*
X722550Y1089250D02*
Y1093500D01*
X688000Y988000D02*
Y1001000D01*
Y988000D02*
X752000D01*
Y1001000D01*
X613000Y1008000D02*
Y1021000D01*
Y1008000D02*
X677000D01*
Y1021000D01*
X584000Y794000D02*
X646000D01*
X584000Y856000D02*
X646000D01*
Y794000D02*
Y856000D01*
X584000Y794000D02*
Y856000D01*
X570000Y675000D02*
X591000D01*
X388000Y766050D02*
Y893550D01*
X413750D01*
Y766050D02*
Y893550D01*
X388000Y766050D02*
X413750D01*
X548910Y719248D02*
Y731247D01*
Y631248D02*
Y697248D01*
X396910Y731247D02*
X548910D01*
X396910Y720248D02*
Y731247D01*
X397910Y627248D02*
Y697248D01*
X397585Y568773D02*
X549910D01*
X397585D02*
Y595000D01*
X549910Y568773D02*
Y595000D01*
X784750Y990250D02*
X855250D01*
Y1073000D01*
X784250D02*
X855250D01*
X784250Y990750D02*
Y1073000D01*
X784750Y894250D02*
X855250D01*
Y977000D01*
X784250D02*
X855250D01*
X784250Y894750D02*
Y977000D01*
X631500Y734750D02*
X638500D01*
X631500Y750250D02*
X638500D01*
X652250Y697000D02*
X657000D01*
Y692250D02*
Y697000D01*
X613000D02*
X617750D01*
X613000Y692250D02*
Y697000D01*
Y653000D02*
Y657750D01*
Y653000D02*
X617750D01*
X652250D02*
X657000D01*
Y657750D01*
X756500Y662000D02*
Y691000D01*
X754500Y693000D02*
X756500Y691000D01*
X728500Y693000D02*
X754500D01*
X728500Y685250D02*
Y693000D01*
Y662000D02*
Y669750D01*
Y685250D01*
Y662000D02*
X756500D01*
X625000Y885000D02*
Y906000D01*
X535750Y1009000D02*
X587000D01*
Y924000D02*
Y1009000D01*
X535500Y924000D02*
X587000D01*
X535500D02*
Y1008750D01*
X855000Y808450D02*
X855250Y808700D01*
X829500Y808450D02*
X855000D01*
X829500D02*
Y886200D01*
X855250D01*
Y808700D02*
Y886200D01*
X421500Y791500D02*
X442500D01*
X517478Y811719D02*
X521478D01*
X505015Y824003D02*
Y827543D01*
X517223Y840929D02*
X520763D01*
X538309Y824587D02*
Y828587D01*
X740000Y717750D02*
X747000D01*
X740000Y702250D02*
X747000D01*
X740000Y742750D02*
X747000D01*
X740000Y727250D02*
X747000D01*
X564000Y1041500D02*
X585000D01*
X534750Y1035000D02*
Y1042000D01*
X550250Y1035000D02*
Y1042000D01*
X770950Y562750D02*
Y588750D01*
X668450D02*
X770950D01*
X668450Y562750D02*
Y588750D01*
Y562750D02*
X770950D01*
X665150D02*
Y588750D01*
X562650D02*
X665150D01*
X562650Y562750D02*
Y588750D01*
Y562750D02*
X665150D01*
X635250Y620000D02*
Y627000D01*
X619750Y620000D02*
Y627000D01*
X694750Y670000D02*
Y677000D01*
X710250Y670000D02*
Y677000D01*
X669750Y670000D02*
Y677000D01*
X685250Y670000D02*
Y677000D01*
X686500Y625000D02*
Y646000D01*
X517500Y862750D02*
X524500D01*
X517500Y847250D02*
X524500D01*
X517500Y800250D02*
X524500D01*
X517500Y784750D02*
X524500D01*
X697500Y764750D02*
X704500D01*
X697500Y780250D02*
X704500D01*
X697500Y795750D02*
X704500D01*
X697500Y811250D02*
X704500D01*
X697500Y826750D02*
X704500D01*
X697500Y842250D02*
X704500D01*
X697500Y857750D02*
X704500D01*
X697500Y873250D02*
X704500D01*
X698000Y889750D02*
X705000D01*
X698000Y905250D02*
X705000D01*
X741250Y924000D02*
Y928250D01*
X716000Y927000D02*
Y943000D01*
X739125Y926125D02*
X743375D01*
X659750Y937500D02*
Y944500D01*
X675250Y937500D02*
Y944500D01*
X614750Y937500D02*
Y944500D01*
X630250Y937500D02*
Y944500D01*
X490000Y1008500D02*
X501000D01*
X419000Y1003500D02*
Y1014500D01*
X412000Y1009500D02*
X426000D01*
M02*
