G04*
G04 #@! TF.GenerationSoftware,Altium Limited,Altium Designer,24.2.2 (26)*
G04*
G04 Layer_Physical_Order=2*
G04 Layer_Color=16711680*
%FSLAX44Y44*%
%MOMM*%
G71*
G04*
G04 #@! TF.SameCoordinates,98A400C0-08DE-4AD7-B425-4E8C3969B8A2*
G04*
G04*
G04 #@! TF.FilePolarity,Positive*
G04*
G01*
G75*
%ADD51C,3.0000*%
%ADD54C,0.3000*%
%ADD55C,1.7000*%
%ADD56R,1.7000X1.7000*%
%ADD57C,2.0000*%
%ADD58R,1.7000X1.7000*%
%ADD59C,0.6000*%
%ADD60C,1.2000*%
G36*
X875000Y552500D02*
X375000D01*
Y1125000D01*
X875000D01*
Y552500D01*
D02*
G37*
%LPC*%
G36*
X521230Y1106040D02*
X520801D01*
X517663Y1104740D01*
X515260Y1102337D01*
X514437Y1100351D01*
X513063D01*
X512240Y1102337D01*
X509837Y1104740D01*
X506699Y1106040D01*
X506270D01*
Y1097500D01*
Y1088960D01*
X506699D01*
X509837Y1090260D01*
X512240Y1092663D01*
X513063Y1094649D01*
X514437D01*
X515260Y1092663D01*
X517663Y1090260D01*
X520801Y1088960D01*
X521230D01*
Y1097500D01*
Y1106040D01*
D02*
G37*
G36*
X486230D02*
X485801D01*
X482663Y1104740D01*
X480260Y1102337D01*
X479437Y1100351D01*
X478063D01*
X477240Y1102337D01*
X474837Y1104740D01*
X471699Y1106040D01*
X471270D01*
Y1097500D01*
Y1088960D01*
X471699D01*
X474837Y1090260D01*
X477240Y1092663D01*
X478063Y1094649D01*
X479437D01*
X480260Y1092663D01*
X482663Y1090260D01*
X485801Y1088960D01*
X486230D01*
Y1097500D01*
Y1106040D01*
D02*
G37*
G36*
X468730D02*
X468301D01*
X465163Y1104740D01*
X462760Y1102337D01*
X461937Y1100351D01*
X460563D01*
X459740Y1102337D01*
X457337Y1104740D01*
X454199Y1106040D01*
X453770D01*
Y1097500D01*
Y1088960D01*
X454199D01*
X457337Y1090260D01*
X459740Y1092663D01*
X460563Y1094649D01*
X461937D01*
X462760Y1092663D01*
X465163Y1090260D01*
X468301Y1088960D01*
X468730D01*
Y1097500D01*
Y1106040D01*
D02*
G37*
G36*
X503730D02*
X503301D01*
X500163Y1104740D01*
X497760Y1102337D01*
X496937Y1100351D01*
X495563D01*
X494740Y1102337D01*
X492337Y1104740D01*
X489199Y1106040D01*
X488770D01*
Y1097500D01*
Y1088960D01*
X489199D01*
X492337Y1090260D01*
X494740Y1092663D01*
X495563Y1094649D01*
X496937D01*
X497760Y1092663D01*
X500163Y1090260D01*
X503301Y1088960D01*
X503730D01*
Y1097500D01*
Y1106040D01*
D02*
G37*
G36*
X761270Y1102970D02*
Y1098770D01*
X765470D01*
X764697Y1100638D01*
X763138Y1102197D01*
X761270Y1102970D01*
D02*
G37*
G36*
X524199Y1106040D02*
X523770D01*
Y1098770D01*
X531040D01*
Y1099199D01*
X529740Y1102337D01*
X527337Y1104740D01*
X524199Y1106040D01*
D02*
G37*
G36*
X451230D02*
X450801D01*
X447663Y1104740D01*
X445260Y1102337D01*
X443960Y1099199D01*
Y1098770D01*
X451230D01*
Y1106040D01*
D02*
G37*
G36*
X434199D02*
X433770D01*
Y1098770D01*
X441040D01*
Y1099199D01*
X439740Y1102337D01*
X437337Y1104740D01*
X434199Y1106040D01*
D02*
G37*
G36*
X431230D02*
X430801D01*
X427663Y1104740D01*
X425260Y1102337D01*
X423960Y1099199D01*
Y1098770D01*
X431230D01*
Y1106040D01*
D02*
G37*
G36*
X765470Y1096230D02*
X761270D01*
Y1092030D01*
X763138Y1092803D01*
X764697Y1094362D01*
X765470Y1096230D01*
D02*
G37*
G36*
X758730Y1102970D02*
X756862Y1102197D01*
X755434Y1100769D01*
X707500D01*
X705189Y1099811D01*
X693770Y1088393D01*
Y1083770D01*
X698393D01*
X708854Y1094231D01*
X755434D01*
X756862Y1092803D01*
X758730Y1092030D01*
Y1097500D01*
Y1102970D01*
D02*
G37*
G36*
X531040Y1096230D02*
X523770D01*
Y1088960D01*
X524199D01*
X527337Y1090260D01*
X529740Y1092663D01*
X531040Y1095801D01*
Y1096230D01*
D02*
G37*
G36*
X451230D02*
X443960D01*
Y1095801D01*
X445260Y1092663D01*
X447663Y1090260D01*
X450801Y1088960D01*
X451230D01*
Y1096230D01*
D02*
G37*
G36*
X441040D02*
X433770D01*
Y1088960D01*
X434199D01*
X437337Y1090260D01*
X439740Y1092663D01*
X441040Y1095801D01*
Y1096230D01*
D02*
G37*
G36*
X431230D02*
X423960D01*
Y1095801D01*
X425260Y1092663D01*
X427663Y1090260D01*
X430801Y1088960D01*
X431230D01*
Y1096230D01*
D02*
G37*
G36*
X589199Y1096040D02*
X588770D01*
Y1088770D01*
X596040D01*
Y1089199D01*
X594740Y1092337D01*
X592337Y1094740D01*
X589199Y1096040D01*
D02*
G37*
G36*
X586230D02*
X585801D01*
X582663Y1094740D01*
X580260Y1092337D01*
X578960Y1089199D01*
Y1088770D01*
X586230D01*
Y1096040D01*
D02*
G37*
G36*
X397309Y1120040D02*
X392691D01*
X388230Y1118845D01*
X384230Y1116535D01*
X380965Y1113270D01*
X378655Y1109270D01*
X377460Y1104809D01*
Y1100191D01*
X378655Y1095730D01*
X380965Y1091730D01*
X384230Y1088465D01*
X388230Y1086155D01*
X392691Y1084960D01*
X397309D01*
X401770Y1086155D01*
X405770Y1088465D01*
X409035Y1091730D01*
X411345Y1095730D01*
X412540Y1100191D01*
Y1104809D01*
X411345Y1109270D01*
X409035Y1113270D01*
X405770Y1116535D01*
X401770Y1118845D01*
X397309Y1120040D01*
D02*
G37*
G36*
X691230Y1087970D02*
X689362Y1087197D01*
X687803Y1085638D01*
X687030Y1083770D01*
X691230D01*
Y1087970D01*
D02*
G37*
G36*
X697970Y1081230D02*
X693770D01*
Y1077030D01*
X695638Y1077803D01*
X697197Y1079362D01*
X697970Y1081230D01*
D02*
G37*
G36*
X691230D02*
X687030D01*
X687803Y1079362D01*
X689362Y1077803D01*
X691230Y1077030D01*
Y1081230D01*
D02*
G37*
G36*
X608770Y1080470D02*
Y1076270D01*
X612970D01*
X612197Y1078138D01*
X610638Y1079697D01*
X608770Y1080470D01*
D02*
G37*
G36*
X531699Y1078540D02*
X531270D01*
Y1071270D01*
X538540D01*
Y1071699D01*
X537240Y1074837D01*
X534837Y1077240D01*
X531699Y1078540D01*
D02*
G37*
G36*
X528730D02*
X528301D01*
X525163Y1077240D01*
X522760Y1074837D01*
X521460Y1071699D01*
Y1071270D01*
X528730D01*
Y1078540D01*
D02*
G37*
G36*
X612970Y1073730D02*
X608770D01*
Y1069530D01*
X610638Y1070303D01*
X612197Y1071862D01*
X612970Y1073730D01*
D02*
G37*
G36*
X596040Y1086230D02*
X578960D01*
Y1085801D01*
X580260Y1082663D01*
X582663Y1080260D01*
X585801Y1078960D01*
X586966D01*
X587618Y1077690D01*
X587030Y1076270D01*
X592500D01*
Y1075000D01*
X593770D01*
Y1069530D01*
X595638Y1070303D01*
X597066Y1071731D01*
X602934D01*
X604362Y1070303D01*
X606230Y1069530D01*
Y1075000D01*
Y1080470D01*
X604362Y1079697D01*
X602934Y1078269D01*
X597066D01*
X595638Y1079697D01*
X594176Y1080302D01*
X593791Y1081713D01*
X594740Y1082663D01*
X596040Y1085801D01*
Y1086230D01*
D02*
G37*
G36*
X591230Y1073730D02*
X587030D01*
X587803Y1071862D01*
X589362Y1070303D01*
X591230Y1069530D01*
Y1073730D01*
D02*
G37*
G36*
X538540Y1068730D02*
X531270D01*
Y1061460D01*
X531699D01*
X534837Y1062760D01*
X537240Y1065163D01*
X538540Y1068301D01*
Y1068730D01*
D02*
G37*
G36*
X528730D02*
X521460D01*
Y1068301D01*
X522760Y1065163D01*
X525163Y1062760D01*
X528301Y1061460D01*
X528730D01*
Y1068730D01*
D02*
G37*
G36*
X822494Y1062540D02*
X821270D01*
Y1051270D01*
X832540D01*
Y1052494D01*
X830631Y1057103D01*
X827103Y1060631D01*
X822494Y1062540D01*
D02*
G37*
G36*
X818730D02*
X817506D01*
X812897Y1060631D01*
X809369Y1057103D01*
X807460Y1052494D01*
Y1051270D01*
X818730D01*
Y1062540D01*
D02*
G37*
G36*
X844199Y1058540D02*
X843770D01*
Y1051270D01*
X851040D01*
Y1051699D01*
X849740Y1054837D01*
X847337Y1057240D01*
X844199Y1058540D01*
D02*
G37*
G36*
X841230D02*
X840801D01*
X837663Y1057240D01*
X835260Y1054837D01*
X833960Y1051699D01*
Y1051270D01*
X841230D01*
Y1058540D01*
D02*
G37*
G36*
X851040Y1048730D02*
X843770D01*
Y1041460D01*
X844199D01*
X847337Y1042760D01*
X849740Y1045163D01*
X851040Y1048301D01*
Y1048730D01*
D02*
G37*
G36*
X841230D02*
X833960D01*
Y1048301D01*
X835260Y1045163D01*
X837663Y1042760D01*
X840801Y1041460D01*
X841230D01*
Y1048730D01*
D02*
G37*
G36*
X601699Y1048540D02*
X601270D01*
Y1041270D01*
X608540D01*
Y1041699D01*
X607240Y1044837D01*
X604837Y1047240D01*
X601699Y1048540D01*
D02*
G37*
G36*
X598730D02*
X598301D01*
X595163Y1047240D01*
X592760Y1044837D01*
X591460Y1041699D01*
Y1041270D01*
X598730D01*
Y1048540D01*
D02*
G37*
G36*
X832540Y1048730D02*
X821270D01*
Y1037460D01*
X822494D01*
X827103Y1039369D01*
X830631Y1042897D01*
X832540Y1047506D01*
Y1048730D01*
D02*
G37*
G36*
X818730D02*
X807460D01*
Y1047506D01*
X809369Y1042897D01*
X812897Y1039369D01*
X817506Y1037460D01*
X818730D01*
Y1048730D01*
D02*
G37*
G36*
X608540Y1038730D02*
X601270D01*
Y1031460D01*
X601699D01*
X604837Y1032760D01*
X607240Y1035163D01*
X608540Y1038301D01*
Y1038730D01*
D02*
G37*
G36*
X598730D02*
X591460D01*
Y1038301D01*
X592760Y1035163D01*
X595163Y1032760D01*
X598301Y1031460D01*
X598730D01*
Y1038730D01*
D02*
G37*
G36*
X601699Y1023540D02*
X601270D01*
Y1016270D01*
X608540D01*
Y1016699D01*
X607240Y1019837D01*
X604837Y1022240D01*
X601699Y1023540D01*
D02*
G37*
G36*
X598730D02*
X598301D01*
X595163Y1022240D01*
X592760Y1019837D01*
X591460Y1016699D01*
Y1016270D01*
X598730D01*
Y1023540D01*
D02*
G37*
G36*
X608540Y1013730D02*
X601270D01*
Y1006460D01*
X601699D01*
X604837Y1007760D01*
X607240Y1010163D01*
X608540Y1013301D01*
Y1013730D01*
D02*
G37*
G36*
X598730D02*
X591460D01*
Y1013301D01*
X592760Y1010163D01*
X595163Y1007760D01*
X598301Y1006460D01*
X598730D01*
Y1013730D01*
D02*
G37*
G36*
X822291Y1026520D02*
X817709D01*
X813475Y1024766D01*
X810234Y1021526D01*
X808480Y1017291D01*
Y1012709D01*
X810234Y1008475D01*
X813475Y1005234D01*
X817709Y1003480D01*
X822291D01*
X826526Y1005234D01*
X829766Y1008475D01*
X831520Y1012709D01*
Y1017291D01*
X829766Y1021526D01*
X826526Y1024766D01*
X822291Y1026520D01*
D02*
G37*
G36*
X497196Y1003540D02*
X496270D01*
Y993770D01*
X506040D01*
Y994696D01*
X504359Y998754D01*
X501254Y1001859D01*
X497196Y1003540D01*
D02*
G37*
G36*
X493730D02*
X492804D01*
X488746Y1001859D01*
X485641Y998754D01*
X483960Y994696D01*
Y993770D01*
X493730D01*
Y1003540D01*
D02*
G37*
G36*
X601699Y998540D02*
X601270D01*
Y991270D01*
X608540D01*
Y991699D01*
X607240Y994837D01*
X604837Y997240D01*
X601699Y998540D01*
D02*
G37*
G36*
X598730D02*
X598301D01*
X595163Y997240D01*
X592760Y994837D01*
X591460Y991699D01*
Y991270D01*
X598730D01*
Y998540D01*
D02*
G37*
G36*
X506040Y991230D02*
X496270D01*
Y981460D01*
X497196D01*
X501254Y983141D01*
X504359Y986246D01*
X506040Y990304D01*
Y991230D01*
D02*
G37*
G36*
X493730D02*
X483960D01*
Y990304D01*
X485641Y986246D01*
X488746Y983141D01*
X492804Y981460D01*
X493730D01*
Y991230D01*
D02*
G37*
G36*
X608540Y988730D02*
X601270D01*
Y981460D01*
X601699D01*
X604837Y982760D01*
X607240Y985163D01*
X608540Y988301D01*
Y988730D01*
D02*
G37*
G36*
X598730D02*
X591460D01*
Y988301D01*
X592760Y985163D01*
X595163Y982760D01*
X598301Y981460D01*
X598730D01*
Y988730D01*
D02*
G37*
G36*
X846699Y973540D02*
X846270D01*
Y966270D01*
X853540D01*
Y966699D01*
X852240Y969837D01*
X849837Y972240D01*
X846699Y973540D01*
D02*
G37*
G36*
X843730D02*
X843301D01*
X840163Y972240D01*
X837760Y969837D01*
X836460Y966699D01*
Y966270D01*
X843730D01*
Y973540D01*
D02*
G37*
G36*
X601699D02*
X601270D01*
Y966270D01*
X608540D01*
Y966699D01*
X607240Y969837D01*
X604837Y972240D01*
X601699Y973540D01*
D02*
G37*
G36*
X598730D02*
X598301D01*
X595163Y972240D01*
X592760Y969837D01*
X591460Y966699D01*
Y966270D01*
X598730D01*
Y973540D01*
D02*
G37*
G36*
X788399Y1019520D02*
X786601D01*
X784940Y1018832D01*
X783668Y1017560D01*
X782980Y1015899D01*
Y1015103D01*
X765189Y997311D01*
X764231Y995000D01*
Y965769D01*
X725623D01*
X725060Y966332D01*
X723399Y967020D01*
X722603D01*
X717311Y972311D01*
X715000Y973269D01*
X660623D01*
X660060Y973832D01*
X658399Y974520D01*
X656601D01*
X654940Y973832D01*
X653668Y972560D01*
X652980Y970899D01*
Y969101D01*
X653668Y967440D01*
X654940Y966168D01*
X656601Y965480D01*
X658399D01*
X660060Y966168D01*
X660623Y966731D01*
X713646D01*
X717980Y962397D01*
Y961601D01*
X718668Y959940D01*
X719069Y959539D01*
X718543Y958269D01*
X688123D01*
X687560Y958832D01*
X685899Y959520D01*
X684101D01*
X682440Y958832D01*
X681168Y957560D01*
X680480Y955899D01*
Y954101D01*
X681168Y952440D01*
X682440Y951168D01*
X684101Y950480D01*
X685899D01*
X687560Y951168D01*
X688123Y951731D01*
X766731D01*
Y920757D01*
X767689Y918446D01*
X769446Y916689D01*
X771757Y915731D01*
X808885D01*
X810234Y912475D01*
X813475Y909234D01*
X816731Y907885D01*
Y850369D01*
X807100D01*
X804789Y849411D01*
X795189Y839811D01*
X794231Y837500D01*
Y775995D01*
X792961Y775743D01*
X792311Y777311D01*
X789811Y779811D01*
X787500Y780769D01*
X758792D01*
X758602Y781960D01*
X760638Y782803D01*
X762197Y784362D01*
X762970Y786230D01*
X757500D01*
Y788770D01*
X762970D01*
X762197Y790638D01*
X760638Y792197D01*
X759447Y792690D01*
X759700Y793960D01*
X761699D01*
X764837Y795260D01*
X767240Y797663D01*
X768540Y800801D01*
Y801230D01*
X751460D01*
Y800801D01*
X752760Y797663D01*
X755163Y795260D01*
X757456Y794310D01*
X757204Y793040D01*
X756398D01*
X754362Y792197D01*
X752934Y790769D01*
X704566D01*
X703138Y792197D01*
X701270Y792970D01*
Y787500D01*
Y782030D01*
X703138Y782803D01*
X704566Y784231D01*
X752934D01*
X754362Y782803D01*
X756398Y781960D01*
X756208Y780769D01*
X745000D01*
X742689Y779811D01*
X716992Y754115D01*
X716960Y754036D01*
X716192Y753269D01*
X623269D01*
Y773243D01*
X622311Y775554D01*
X620554Y777311D01*
X618243Y778269D01*
X588810D01*
X587728Y779351D01*
X585416Y780309D01*
X579584D01*
X577273Y779351D01*
X572941Y775020D01*
X571983Y772708D01*
Y771205D01*
X570713Y770679D01*
X570060Y771332D01*
X568399Y772020D01*
X566942D01*
X566455Y772201D01*
X565769Y773050D01*
Y773646D01*
X579314Y787191D01*
X615460D01*
X617771Y788149D01*
X627603Y797980D01*
X628399D01*
X630060Y798668D01*
X631332Y799940D01*
X632020Y801601D01*
Y803399D01*
X631332Y805060D01*
X630060Y806332D01*
X628399Y807020D01*
X626601D01*
X624940Y806332D01*
X623668Y805060D01*
X622980Y803399D01*
Y802603D01*
X614106Y793729D01*
X591780D01*
X591294Y794902D01*
X591332Y794940D01*
X592020Y796601D01*
Y798399D01*
X591332Y800060D01*
X590060Y801332D01*
X588399Y802020D01*
X586601D01*
X584940Y801332D01*
X584377Y800769D01*
X551757D01*
X549446Y799811D01*
X547689Y798054D01*
X546731Y795743D01*
Y780769D01*
X496757D01*
X494446Y779811D01*
X492689Y778054D01*
X491731Y775743D01*
Y758123D01*
X491168Y757560D01*
X490687Y756400D01*
X489313D01*
X488832Y757560D01*
X488269Y758123D01*
Y766877D01*
X488832Y767440D01*
X489520Y769101D01*
Y770899D01*
X488832Y772560D01*
X487560Y773832D01*
X485899Y774520D01*
X484101D01*
X482440Y773832D01*
X481168Y772560D01*
X480480Y770899D01*
Y769101D01*
X481168Y767440D01*
X481731Y766877D01*
Y758123D01*
X481168Y757560D01*
X480480Y755899D01*
Y754101D01*
X481168Y752440D01*
X482440Y751168D01*
X484101Y750480D01*
X485899D01*
X487560Y751168D01*
X488832Y752440D01*
X489313Y753600D01*
X490687D01*
X491168Y752440D01*
X492440Y751168D01*
X494101Y750480D01*
X495899D01*
X497560Y751168D01*
X498832Y752440D01*
X499520Y754101D01*
Y755899D01*
X498832Y757560D01*
X498269Y758123D01*
Y774231D01*
X548243D01*
X550554Y775189D01*
X552311Y776946D01*
X552961Y778515D01*
X554231Y778262D01*
Y775202D01*
X553629Y774600D01*
X552671Y772288D01*
Y762712D01*
X553629Y760400D01*
X554231Y759798D01*
Y755769D01*
X515623D01*
X515060Y756332D01*
X513399Y757020D01*
X511601D01*
X509940Y756332D01*
X508668Y755060D01*
X507980Y753399D01*
Y751601D01*
X508668Y749940D01*
X509069Y749539D01*
X508543Y748269D01*
X455623D01*
X455060Y748832D01*
X453399Y749520D01*
X451601D01*
X449940Y748832D01*
X448668Y747560D01*
X447980Y745899D01*
Y744101D01*
X448668Y742440D01*
X449069Y742039D01*
X448543Y740769D01*
X433123D01*
X432560Y741332D01*
X430899Y742020D01*
X430846D01*
X430360Y743193D01*
X491398Y804231D01*
X594377D01*
X594940Y803668D01*
X596601Y802980D01*
X598399D01*
X600060Y803668D01*
X601332Y804940D01*
X602020Y806601D01*
Y808399D01*
X601332Y810060D01*
X600060Y811332D01*
X598399Y812020D01*
X596601D01*
X594940Y811332D01*
X594377Y810769D01*
X553451D01*
X553199Y812039D01*
X554767Y812689D01*
X556310Y814231D01*
X589377D01*
X589940Y813668D01*
X591601Y812980D01*
X593399D01*
X595060Y813668D01*
X596332Y814940D01*
X597020Y816601D01*
Y818399D01*
X596552Y819529D01*
X597629Y820249D01*
X607980Y809897D01*
Y809101D01*
X608668Y807440D01*
X609940Y806168D01*
X611601Y805480D01*
X613399D01*
X615060Y806168D01*
X616332Y807440D01*
X617020Y809101D01*
Y810899D01*
X616332Y812560D01*
X615060Y813832D01*
X613399Y814520D01*
X612603D01*
X574094Y853029D01*
X574688Y854231D01*
X586146D01*
X600189Y840189D01*
X602500Y839231D01*
X621505D01*
X621757Y837961D01*
X620189Y837311D01*
X614897Y832020D01*
X614101D01*
X612440Y831332D01*
X611168Y830060D01*
X610480Y828399D01*
Y826601D01*
X611168Y824940D01*
X612440Y823668D01*
X614101Y822980D01*
X615899D01*
X617560Y823668D01*
X618832Y824940D01*
X619520Y826601D01*
Y827397D01*
X623854Y831731D01*
X637875D01*
X638574Y830474D01*
X638189Y829682D01*
X637115Y829237D01*
X629897Y822020D01*
X629101D01*
X627440Y821332D01*
X626168Y820060D01*
X625480Y818399D01*
Y816601D01*
X626168Y814940D01*
X627440Y813668D01*
X629101Y812980D01*
X630899D01*
X632560Y813668D01*
X633832Y814940D01*
X634520Y816601D01*
Y817397D01*
X640542Y823419D01*
X641601Y822980D01*
X643399D01*
X645060Y823668D01*
X646332Y824940D01*
X647020Y826601D01*
Y828399D01*
X646332Y830060D01*
X645931Y830461D01*
X646457Y831731D01*
X669231D01*
Y825623D01*
X668668Y825060D01*
X667980Y823399D01*
Y821601D01*
X668668Y819940D01*
X669940Y818668D01*
X671601Y817980D01*
X671698D01*
X672184Y816807D01*
X670189Y814811D01*
X669231Y812500D01*
Y800623D01*
X668668Y800060D01*
X667980Y798399D01*
Y796601D01*
X668668Y794940D01*
X669940Y793668D01*
X671601Y792980D01*
X673399D01*
X675060Y793668D01*
X676332Y794940D01*
X677020Y796601D01*
Y798399D01*
X676332Y800060D01*
X675769Y800623D01*
Y811146D01*
X681354Y816731D01*
X729377D01*
X729940Y816168D01*
X731601Y815480D01*
X733399D01*
X735060Y816168D01*
X736332Y817440D01*
X737020Y819101D01*
Y820899D01*
X736332Y822560D01*
X735060Y823832D01*
X733399Y824520D01*
X731601D01*
X729940Y823832D01*
X729377Y823269D01*
X680000D01*
X678290Y822561D01*
X677020Y823302D01*
Y823399D01*
X676332Y825060D01*
X675769Y825623D01*
Y833243D01*
X674811Y835554D01*
X673054Y837311D01*
X670743Y838269D01*
X646457D01*
X645931Y839539D01*
X646332Y839940D01*
X647020Y841601D01*
Y843399D01*
X646332Y845060D01*
X645060Y846332D01*
X643399Y847020D01*
X641601D01*
X639940Y846332D01*
X639377Y845769D01*
X603854D01*
X589811Y859811D01*
X587500Y860769D01*
X575769D01*
Y893543D01*
X577039Y894069D01*
X577440Y893668D01*
X579101Y892980D01*
X580899D01*
X582560Y893668D01*
X583832Y894940D01*
X584520Y896601D01*
Y898399D01*
X583832Y900060D01*
X583269Y900623D01*
Y916877D01*
X583832Y917440D01*
X584520Y919101D01*
Y920899D01*
X583832Y922560D01*
X582560Y923832D01*
X580899Y924520D01*
X579101D01*
X577440Y923832D01*
X576168Y922560D01*
X575480Y920899D01*
Y919101D01*
X576168Y917440D01*
X576731Y916877D01*
Y908957D01*
X575461Y908431D01*
X575060Y908832D01*
X573399Y909520D01*
X571601D01*
X569940Y908832D01*
X568668Y907560D01*
X567980Y905899D01*
Y904101D01*
X568668Y902440D01*
X569231Y901877D01*
Y859688D01*
X568029Y859094D01*
X434311Y992811D01*
X432000Y993769D01*
X429020D01*
Y994493D01*
X427495Y998176D01*
X424676Y1000995D01*
X420993Y1002520D01*
X417007D01*
X413324Y1000995D01*
X410505Y998176D01*
X408980Y994493D01*
Y990507D01*
X410505Y986824D01*
X413324Y984006D01*
X417007Y982480D01*
X420993D01*
X424676Y984006D01*
X427495Y986824D01*
X427663Y987231D01*
X430646D01*
X517184Y900693D01*
X516698Y899520D01*
X516601D01*
X514940Y898832D01*
X514377Y898269D01*
X487544D01*
X485233Y897311D01*
X475189Y887267D01*
X474231Y884956D01*
Y821354D01*
X461146Y808269D01*
X420583D01*
X420020Y808832D01*
X418359Y809520D01*
X416561D01*
X414900Y808832D01*
X413628Y807560D01*
X412940Y805899D01*
Y804101D01*
X413628Y802440D01*
X414900Y801168D01*
X416561Y800480D01*
X418359D01*
X420020Y801168D01*
X420583Y801731D01*
X462500D01*
X464811Y802689D01*
X479811Y817689D01*
X480769Y820000D01*
Y883602D01*
X484307Y887140D01*
X485480Y886654D01*
Y886601D01*
X486168Y884940D01*
X486731Y884377D01*
Y875623D01*
X486168Y875060D01*
X485480Y873399D01*
Y871601D01*
X486168Y869940D01*
X487440Y868668D01*
X489101Y867980D01*
X489105D01*
X489631Y866710D01*
X483149Y860228D01*
X482191Y857916D01*
Y824584D01*
X483149Y822272D01*
X487070Y818352D01*
X487265Y818024D01*
X487187Y816809D01*
X415189Y744811D01*
X414231Y742500D01*
Y730000D01*
X415189Y727689D01*
X419249Y723629D01*
X421560Y722671D01*
X456894D01*
X458980Y723535D01*
X481731D01*
Y564217D01*
X482689Y561906D01*
X484446Y560149D01*
X486757Y559191D01*
X598203D01*
X600514Y560149D01*
X602311Y561946D01*
X603269Y564257D01*
Y564980D01*
X604093D01*
X607776Y566506D01*
X610594Y569324D01*
X612120Y573007D01*
Y576993D01*
X610594Y580676D01*
X607776Y583494D01*
X604093Y585020D01*
X600107D01*
X596424Y583494D01*
X593605Y580676D01*
X592080Y576993D01*
Y573007D01*
X593605Y569324D01*
X595931Y566999D01*
X595405Y565729D01*
X583395D01*
X582869Y566999D01*
X585195Y569324D01*
X586720Y573007D01*
Y576993D01*
X585195Y580676D01*
X582376Y583494D01*
X578693Y585020D01*
X574707D01*
X571024Y583494D01*
X568205Y580676D01*
X567208Y578269D01*
X493854D01*
X493269Y578854D01*
Y587206D01*
X494442Y587692D01*
X494446Y587689D01*
X496757Y586731D01*
X623654D01*
X623907Y585461D01*
X621246Y584359D01*
X618141Y581254D01*
X616460Y577196D01*
Y576270D01*
X638540D01*
Y577196D01*
X636859Y581254D01*
X633754Y584359D01*
X631093Y585461D01*
X631346Y586731D01*
X679231D01*
Y584492D01*
X676824Y583494D01*
X674006Y580676D01*
X672480Y576993D01*
Y573007D01*
X674006Y569324D01*
X676824Y566506D01*
X680507Y564980D01*
X684493D01*
X688176Y566506D01*
X690994Y569324D01*
X692520Y573007D01*
Y576993D01*
X690994Y580676D01*
X688176Y583494D01*
X685769Y584492D01*
Y588243D01*
X684811Y590554D01*
X683054Y592311D01*
X680743Y593269D01*
X648495D01*
X648243Y594539D01*
X649811Y595189D01*
X654811Y600189D01*
X655769Y602500D01*
Y609231D01*
X704631D01*
Y584492D01*
X702224Y583494D01*
X699406Y580676D01*
X697880Y576993D01*
Y573007D01*
X699406Y569324D01*
X702224Y566506D01*
X705907Y564980D01*
X709893D01*
X713576Y566506D01*
X716395Y569324D01*
X717920Y573007D01*
Y576993D01*
X716395Y580676D01*
X713576Y583494D01*
X711169Y584492D01*
Y610743D01*
X710211Y613054D01*
X710208Y613058D01*
X710694Y614231D01*
X731731D01*
Y604566D01*
X730303Y603138D01*
X729530Y601270D01*
X735000D01*
Y600000D01*
X736270D01*
Y594530D01*
X738138Y595303D01*
X739697Y596862D01*
X740540Y598898D01*
Y600587D01*
X741803Y601120D01*
X742663Y600260D01*
X745801Y598960D01*
X746230D01*
Y607500D01*
Y616040D01*
X745801D01*
X742663Y614740D01*
X740260Y612337D01*
X739539Y610596D01*
X738269Y610849D01*
Y615743D01*
X737311Y618054D01*
X735554Y619811D01*
X733243Y620769D01*
X708495D01*
X708243Y622039D01*
X709811Y622689D01*
X719811Y632689D01*
X720769Y635000D01*
Y671877D01*
X721332Y672440D01*
X722020Y674101D01*
Y675899D01*
X721332Y677560D01*
X720060Y678832D01*
X718399Y679520D01*
X716601D01*
X714940Y678832D01*
X713668Y677560D01*
X712980Y675899D01*
Y674101D01*
X713668Y672440D01*
X714231Y671877D01*
Y636354D01*
X706146Y628269D01*
X655623D01*
X655060Y628832D01*
X653399Y629520D01*
X651601D01*
X649940Y628832D01*
X648668Y627560D01*
X647980Y625899D01*
Y624101D01*
X648668Y622440D01*
X649069Y622039D01*
X648543Y620769D01*
X646757D01*
X644446Y619812D01*
X642689Y618054D01*
X641731Y615743D01*
Y609566D01*
X640303Y608138D01*
X639530Y606270D01*
X645000D01*
Y603730D01*
X639530D01*
X640230Y602039D01*
X639737Y600769D01*
X516111D01*
X515809Y601071D01*
Y651807D01*
X515769Y651904D01*
Y701877D01*
X516332Y702440D01*
X517020Y704101D01*
Y705899D01*
X516332Y707560D01*
X515060Y708832D01*
X513399Y709520D01*
X511601D01*
X509940Y708832D01*
X508668Y707560D01*
X507980Y705899D01*
Y704101D01*
X508668Y702440D01*
X509231Y701877D01*
Y651847D01*
X509271Y651750D01*
Y616344D01*
X508098Y615858D01*
X507988Y615968D01*
X505400Y617040D01*
X502600D01*
X500012Y615968D01*
X499442Y615398D01*
X498269Y615884D01*
Y729377D01*
X498832Y729940D01*
X499520Y731601D01*
Y733058D01*
X499701Y733546D01*
X500550Y734231D01*
X539377D01*
X539940Y733668D01*
X541601Y732980D01*
X543399D01*
X545060Y733668D01*
X546332Y734940D01*
X547020Y736601D01*
Y738399D01*
X546332Y740060D01*
X545931Y740461D01*
X546457Y741731D01*
X551877D01*
X552440Y741168D01*
X554101Y740480D01*
X555899D01*
X557560Y741168D01*
X557961Y741569D01*
X559231Y741043D01*
Y693123D01*
X558668Y692560D01*
X557980Y690899D01*
Y689101D01*
X558668Y687440D01*
X559940Y686168D01*
X561601Y685480D01*
X562397D01*
X599231Y648646D01*
Y636757D01*
X600189Y634446D01*
X604446Y630189D01*
X606757Y629231D01*
X639377D01*
X639940Y628668D01*
X641601Y627980D01*
X643399D01*
X645060Y628668D01*
X646332Y629940D01*
X647020Y631601D01*
Y633399D01*
X646332Y635060D01*
X645060Y636332D01*
X643399Y637020D01*
X641601D01*
X639940Y636332D01*
X639377Y635769D01*
X608111D01*
X605769Y638111D01*
Y650000D01*
X604811Y652311D01*
X567020Y690103D01*
Y690899D01*
X566332Y692560D01*
X565769Y693123D01*
Y726963D01*
X567039Y727489D01*
X567440Y727088D01*
X569101Y726400D01*
X570899D01*
X572560Y727088D01*
X573832Y728360D01*
X574520Y730021D01*
Y731819D01*
X573832Y733480D01*
X573269Y734043D01*
Y742084D01*
X573097Y742498D01*
X573946Y743768D01*
X574651D01*
X576312Y744456D01*
X577584Y745728D01*
X578272Y747389D01*
Y747442D01*
X579445Y747928D01*
X584147Y743226D01*
Y741842D01*
X585104Y739530D01*
X591946Y732689D01*
X594257Y731731D01*
X692237D01*
X692730Y730461D01*
X692030Y728770D01*
X697500D01*
Y727500D01*
X698770D01*
Y722030D01*
X700638Y722803D01*
X702066Y724231D01*
X730000D01*
X732311Y725189D01*
X756230Y749107D01*
Y755000D01*
X757500D01*
Y756270D01*
X762970D01*
X762270Y757961D01*
X762763Y759231D01*
X766731D01*
Y683269D01*
X763123D01*
X762560Y683832D01*
X760899Y684520D01*
X759101D01*
X757440Y683832D01*
X756168Y682560D01*
X755480Y680899D01*
Y679101D01*
X756168Y677440D01*
X757440Y676168D01*
X759101Y675480D01*
X760899D01*
X762560Y676168D01*
X763123Y676731D01*
X766043D01*
X766569Y675461D01*
X766168Y675060D01*
X765480Y673399D01*
Y671601D01*
X766168Y669940D01*
X767440Y668668D01*
X769101Y667980D01*
X770899D01*
X772560Y668668D01*
X773832Y669940D01*
X774520Y671601D01*
Y673004D01*
X777311Y675795D01*
X777961Y677364D01*
X779231Y677111D01*
Y658269D01*
X738123D01*
X737560Y658832D01*
X735899Y659520D01*
X734101D01*
X732440Y658832D01*
X731168Y657560D01*
X730480Y655899D01*
Y654101D01*
X731168Y652440D01*
X732440Y651168D01*
X734101Y650480D01*
X735899D01*
X737560Y651168D01*
X738123Y651731D01*
X760762D01*
X761015Y650461D01*
X759446Y649811D01*
X757689Y648054D01*
X756731Y645743D01*
Y638349D01*
X755461Y638096D01*
X754740Y639837D01*
X752337Y642240D01*
X749199Y643540D01*
X748770D01*
Y635000D01*
Y626460D01*
X749199D01*
X752337Y627760D01*
X754740Y630163D01*
X755461Y631904D01*
X756731Y631651D01*
Y610849D01*
X755461Y610596D01*
X754740Y612337D01*
X752337Y614740D01*
X749199Y616040D01*
X748770D01*
Y607500D01*
Y598960D01*
X749199D01*
X752337Y600260D01*
X754740Y602663D01*
X755461Y604404D01*
X756731Y604151D01*
Y585020D01*
X748680D01*
Y564980D01*
X768720D01*
Y585020D01*
X763269D01*
Y644231D01*
X795743D01*
X798054Y645189D01*
X799811Y646946D01*
X800769Y649257D01*
Y836146D01*
X808454Y843831D01*
X833008D01*
X834006Y841424D01*
X836824Y838605D01*
X840507Y837080D01*
X844493D01*
X848176Y838605D01*
X850994Y841424D01*
X852520Y845107D01*
Y849093D01*
X850994Y852776D01*
X848176Y855594D01*
X844493Y857120D01*
X840507D01*
X836824Y855594D01*
X834006Y852776D01*
X833008Y850369D01*
X823269D01*
Y907885D01*
X826526Y909234D01*
X829766Y912475D01*
X831520Y916709D01*
Y921292D01*
X829766Y925526D01*
X826526Y928766D01*
X822291Y930520D01*
X817709D01*
X813475Y928766D01*
X810234Y925526D01*
X808885Y922269D01*
X773269D01*
Y953243D01*
X772311Y955554D01*
X770554Y957311D01*
X768243Y958269D01*
X766738D01*
X766485Y959539D01*
X768054Y960189D01*
X769811Y961946D01*
X770769Y964257D01*
Y993646D01*
X787603Y1010480D01*
X788399D01*
X790060Y1011168D01*
X791332Y1012440D01*
X792020Y1014101D01*
Y1015899D01*
X791332Y1017560D01*
X790060Y1018832D01*
X788399Y1019520D01*
D02*
G37*
G36*
X853540Y963730D02*
X846270D01*
Y956460D01*
X846699D01*
X849837Y957760D01*
X852240Y960163D01*
X853540Y963301D01*
Y963730D01*
D02*
G37*
G36*
X843730D02*
X836460D01*
Y963301D01*
X837760Y960163D01*
X840163Y957760D01*
X843301Y956460D01*
X843730D01*
Y963730D01*
D02*
G37*
G36*
X608540D02*
X601270D01*
Y956460D01*
X601699D01*
X604837Y957760D01*
X607240Y960163D01*
X608540Y963301D01*
Y963730D01*
D02*
G37*
G36*
X598730D02*
X591460D01*
Y963301D01*
X592760Y960163D01*
X595163Y957760D01*
X598301Y956460D01*
X598730D01*
Y963730D01*
D02*
G37*
G36*
X822494Y966540D02*
X821270D01*
Y955270D01*
X832540D01*
Y956494D01*
X830631Y961103D01*
X827103Y964631D01*
X822494Y966540D01*
D02*
G37*
G36*
X818730D02*
X817506D01*
X812897Y964631D01*
X809369Y961103D01*
X807460Y956494D01*
Y955270D01*
X818730D01*
Y966540D01*
D02*
G37*
G36*
X832540Y952730D02*
X821270D01*
Y941460D01*
X822494D01*
X827103Y943369D01*
X830631Y946897D01*
X832540Y951506D01*
Y952730D01*
D02*
G37*
G36*
X818730D02*
X807460D01*
Y951506D01*
X809369Y946897D01*
X812897Y943369D01*
X817506Y941460D01*
X818730D01*
Y952730D01*
D02*
G37*
G36*
X766699Y911040D02*
X766270D01*
Y903770D01*
X773540D01*
Y904199D01*
X772240Y907337D01*
X769837Y909740D01*
X766699Y911040D01*
D02*
G37*
G36*
X763730D02*
X763301D01*
X760163Y909740D01*
X757760Y907337D01*
X756460Y904199D01*
Y903770D01*
X763730D01*
Y911040D01*
D02*
G37*
G36*
X773540Y901230D02*
X766270D01*
Y893960D01*
X766699D01*
X769837Y895260D01*
X772240Y897663D01*
X773540Y900801D01*
Y901230D01*
D02*
G37*
G36*
X763730D02*
X756460D01*
Y900801D01*
X757760Y897663D01*
X760163Y895260D01*
X763301Y893960D01*
X763730D01*
Y901230D01*
D02*
G37*
G36*
X650899Y919520D02*
X649101D01*
X647440Y918832D01*
X646168Y917560D01*
X645480Y915899D01*
Y914101D01*
X646168Y912440D01*
X647440Y911168D01*
X649101Y910480D01*
X649897D01*
X656271Y904106D01*
Y881780D01*
X655098Y881294D01*
X655060Y881332D01*
X653399Y882020D01*
X651791D01*
X651500Y882311D01*
X649188Y883269D01*
X585623D01*
X585060Y883832D01*
X583399Y884520D01*
X581601D01*
X579940Y883832D01*
X578668Y882560D01*
X577980Y880899D01*
Y879101D01*
X578668Y877440D01*
X579940Y876168D01*
X581601Y875480D01*
X583399D01*
X585060Y876168D01*
X585623Y876731D01*
X647834D01*
X647991Y876574D01*
X648668Y874940D01*
X649940Y873668D01*
X651601Y872980D01*
X653399D01*
X655060Y873668D01*
X655098Y873706D01*
X656271Y873220D01*
Y864257D01*
X657229Y861946D01*
X658986Y860189D01*
X661297Y859231D01*
X669377D01*
X669940Y858668D01*
X671601Y857980D01*
X673399D01*
X675060Y858668D01*
X676332Y859940D01*
X677020Y861601D01*
Y863399D01*
X676332Y865060D01*
X675060Y866332D01*
X673399Y867020D01*
X671601D01*
X669940Y866332D01*
X669377Y865769D01*
X662809D01*
Y870955D01*
X663982Y871441D01*
X665163Y870260D01*
X668301Y868960D01*
X668730D01*
Y877500D01*
Y886040D01*
X668301D01*
X665163Y884740D01*
X663982Y883559D01*
X662809Y884045D01*
Y905460D01*
X661851Y907771D01*
X654520Y915103D01*
Y915899D01*
X653832Y917560D01*
X652560Y918832D01*
X650899Y919520D01*
D02*
G37*
G36*
X804199Y888540D02*
X803770D01*
Y881270D01*
X811040D01*
Y881699D01*
X809740Y884837D01*
X807337Y887240D01*
X804199Y888540D01*
D02*
G37*
G36*
X801230D02*
X800801D01*
X797663Y887240D01*
X795260Y884837D01*
X793960Y881699D01*
Y881270D01*
X801230D01*
Y888540D01*
D02*
G37*
G36*
X776699D02*
X776270D01*
Y881270D01*
X783540D01*
Y881699D01*
X782240Y884837D01*
X779837Y887240D01*
X776699Y888540D01*
D02*
G37*
G36*
X773730D02*
X773301D01*
X770163Y887240D01*
X767760Y884837D01*
X766460Y881699D01*
Y881270D01*
X773730D01*
Y888540D01*
D02*
G37*
G36*
X671699Y886040D02*
X671270D01*
Y878770D01*
X678540D01*
Y879199D01*
X677240Y882337D01*
X674837Y884740D01*
X671699Y886040D01*
D02*
G37*
G36*
X844696Y883540D02*
X843770D01*
Y873770D01*
X853540D01*
Y874696D01*
X851859Y878754D01*
X848754Y881859D01*
X844696Y883540D01*
D02*
G37*
G36*
X841230D02*
X840304D01*
X836246Y881859D01*
X833141Y878754D01*
X831460Y874696D01*
Y873770D01*
X841230D01*
Y883540D01*
D02*
G37*
G36*
X811040Y878730D02*
X803770D01*
Y871460D01*
X804199D01*
X807337Y872760D01*
X809740Y875163D01*
X811040Y878301D01*
Y878730D01*
D02*
G37*
G36*
X801230D02*
X793960D01*
Y878301D01*
X795260Y875163D01*
X797663Y872760D01*
X800801Y871460D01*
X801230D01*
Y878730D01*
D02*
G37*
G36*
X783540D02*
X776270D01*
Y871460D01*
X776699D01*
X779837Y872760D01*
X782240Y875163D01*
X783540Y878301D01*
Y878730D01*
D02*
G37*
G36*
X773730D02*
X766460D01*
Y878301D01*
X767760Y875163D01*
X770163Y872760D01*
X773301Y871460D01*
X773730D01*
Y878730D01*
D02*
G37*
G36*
X401993Y890420D02*
X398007D01*
X394324Y888895D01*
X391506Y886076D01*
X389980Y882393D01*
Y878407D01*
X391506Y874724D01*
X394324Y871906D01*
X398007Y870380D01*
X401993D01*
X405676Y871906D01*
X408494Y874724D01*
X410020Y878407D01*
Y882393D01*
X408494Y886076D01*
X405676Y888895D01*
X401993Y890420D01*
D02*
G37*
G36*
X678540Y876230D02*
X671270D01*
Y868960D01*
X671699D01*
X674837Y870260D01*
X677240Y872663D01*
X678540Y875801D01*
Y876230D01*
D02*
G37*
G36*
X853540Y871230D02*
X843770D01*
Y861460D01*
X844696D01*
X848754Y863141D01*
X851859Y866246D01*
X853540Y870304D01*
Y871230D01*
D02*
G37*
G36*
X841230D02*
X831460D01*
Y870304D01*
X833141Y866246D01*
X836246Y863141D01*
X840304Y861460D01*
X841230D01*
Y871230D01*
D02*
G37*
G36*
X771699Y861040D02*
X771270D01*
Y853770D01*
X778540D01*
Y854199D01*
X777240Y857337D01*
X774837Y859740D01*
X771699Y861040D01*
D02*
G37*
G36*
X768730D02*
X768301D01*
X765163Y859740D01*
X762760Y857337D01*
X761460Y854199D01*
Y853770D01*
X768730D01*
Y861040D01*
D02*
G37*
G36*
X401993Y865020D02*
X398007D01*
X394324Y863495D01*
X391506Y860676D01*
X389980Y856993D01*
Y853007D01*
X391506Y849324D01*
X394324Y846506D01*
X398007Y844980D01*
X401993D01*
X405676Y846506D01*
X408494Y849324D01*
X410020Y853007D01*
Y856993D01*
X408494Y860676D01*
X405676Y863495D01*
X401993Y865020D01*
D02*
G37*
G36*
X778540Y851230D02*
X771270D01*
Y843960D01*
X771699D01*
X774837Y845260D01*
X777240Y847663D01*
X778540Y850801D01*
Y851230D01*
D02*
G37*
G36*
X768730D02*
X761460D01*
Y850801D01*
X762760Y847663D01*
X765163Y845260D01*
X768301Y843960D01*
X768730D01*
Y851230D01*
D02*
G37*
G36*
X426699Y851040D02*
X426270D01*
Y843770D01*
X433540D01*
Y844199D01*
X432240Y847337D01*
X429837Y849740D01*
X426699Y851040D01*
D02*
G37*
G36*
X423730D02*
X423301D01*
X420163Y849740D01*
X417760Y847337D01*
X416460Y844199D01*
Y843770D01*
X423730D01*
Y851040D01*
D02*
G37*
G36*
X454199Y848540D02*
X453770D01*
Y841270D01*
X461040D01*
Y841699D01*
X459740Y844837D01*
X457337Y847240D01*
X454199Y848540D01*
D02*
G37*
G36*
X451230D02*
X450801D01*
X447663Y847240D01*
X445260Y844837D01*
X443960Y841699D01*
Y841270D01*
X451230D01*
Y848540D01*
D02*
G37*
G36*
X781699Y843540D02*
X781270D01*
Y836270D01*
X788540D01*
Y836699D01*
X787240Y839837D01*
X784837Y842240D01*
X781699Y843540D01*
D02*
G37*
G36*
X778730D02*
X778301D01*
X775163Y842240D01*
X772760Y839837D01*
X771460Y836699D01*
Y836270D01*
X778730D01*
Y843540D01*
D02*
G37*
G36*
X433540Y841230D02*
X426270D01*
Y833960D01*
X426699D01*
X429837Y835260D01*
X432240Y837663D01*
X433540Y840801D01*
Y841230D01*
D02*
G37*
G36*
X423730D02*
X416460D01*
Y840801D01*
X417760Y837663D01*
X420163Y835260D01*
X423301Y833960D01*
X423730D01*
Y841230D01*
D02*
G37*
G36*
X402196Y840640D02*
X401270D01*
Y830870D01*
X411040D01*
Y831796D01*
X409359Y835854D01*
X406254Y838959D01*
X402196Y840640D01*
D02*
G37*
G36*
X398730D02*
X397804D01*
X393746Y838959D01*
X390641Y835854D01*
X388960Y831796D01*
Y830870D01*
X398730D01*
Y840640D01*
D02*
G37*
G36*
X788540Y833730D02*
X781270D01*
Y826460D01*
X781699D01*
X784837Y827760D01*
X787240Y830163D01*
X788540Y833301D01*
Y833730D01*
D02*
G37*
G36*
X778730D02*
X771460D01*
Y833301D01*
X772760Y830163D01*
X775163Y827760D01*
X778301Y826460D01*
X778730D01*
Y833730D01*
D02*
G37*
G36*
X461040Y838730D02*
X443960D01*
Y838301D01*
X445260Y835163D01*
X447663Y832760D01*
X448749Y832310D01*
X448497Y831040D01*
X448301D01*
X445163Y829740D01*
X442760Y827337D01*
X441460Y824199D01*
Y823770D01*
X458540D01*
Y824199D01*
X457240Y827337D01*
X454837Y829740D01*
X453751Y830190D01*
X454003Y831460D01*
X454199D01*
X457337Y832760D01*
X459740Y835163D01*
X461040Y838301D01*
Y838730D01*
D02*
G37*
G36*
X411040Y828330D02*
X401270D01*
Y818560D01*
X402196D01*
X406254Y820241D01*
X409359Y823346D01*
X411040Y827404D01*
Y828330D01*
D02*
G37*
G36*
X398730D02*
X388960D01*
Y827404D01*
X390641Y823346D01*
X393746Y820241D01*
X397804Y818560D01*
X398730D01*
Y828330D01*
D02*
G37*
G36*
X458540Y821230D02*
X451270D01*
Y813960D01*
X451699D01*
X454837Y815260D01*
X457240Y817663D01*
X458540Y820801D01*
Y821230D01*
D02*
G37*
G36*
X448730D02*
X441460D01*
Y820801D01*
X442760Y817663D01*
X445163Y815260D01*
X448301Y813960D01*
X448730D01*
Y821230D01*
D02*
G37*
G36*
X852520Y831720D02*
X832480D01*
Y811680D01*
X852520D01*
Y831720D01*
D02*
G37*
G36*
X761699Y811040D02*
X761270D01*
Y803770D01*
X768540D01*
Y804199D01*
X767240Y807337D01*
X764837Y809740D01*
X761699Y811040D01*
D02*
G37*
G36*
X758730D02*
X758301D01*
X755163Y809740D01*
X752760Y807337D01*
X751460Y804199D01*
Y803770D01*
X758730D01*
Y811040D01*
D02*
G37*
G36*
X401993Y814220D02*
X398007D01*
X394324Y812695D01*
X391506Y809876D01*
X389980Y806193D01*
Y802207D01*
X391506Y798524D01*
X394324Y795705D01*
X398007Y794180D01*
X401993D01*
X405676Y795705D01*
X408494Y798524D01*
X410020Y802207D01*
Y806193D01*
X408494Y809876D01*
X405676Y812695D01*
X401993Y814220D01*
D02*
G37*
G36*
X698730Y792970D02*
X696862Y792197D01*
X695303Y790638D01*
X694530Y788770D01*
X698730D01*
Y792970D01*
D02*
G37*
G36*
Y786230D02*
X694530D01*
X695303Y784362D01*
X696862Y782803D01*
X698730Y782030D01*
Y786230D01*
D02*
G37*
G36*
X851699Y788540D02*
X851270D01*
Y781270D01*
X858540D01*
Y781699D01*
X857240Y784837D01*
X854837Y787240D01*
X851699Y788540D01*
D02*
G37*
G36*
X848730D02*
X848301D01*
X845163Y787240D01*
X842760Y784837D01*
X841460Y781699D01*
Y781270D01*
X848730D01*
Y788540D01*
D02*
G37*
G36*
X826699D02*
X826270D01*
Y781270D01*
X833540D01*
Y781699D01*
X832240Y784837D01*
X829837Y787240D01*
X826699Y788540D01*
D02*
G37*
G36*
X823730D02*
X823301D01*
X820163Y787240D01*
X817760Y784837D01*
X816460Y781699D01*
Y781270D01*
X823730D01*
Y788540D01*
D02*
G37*
G36*
X858540Y778730D02*
X851270D01*
Y771460D01*
X851699D01*
X854837Y772760D01*
X857240Y775163D01*
X858540Y778301D01*
Y778730D01*
D02*
G37*
G36*
X848730D02*
X841460D01*
Y778301D01*
X842760Y775163D01*
X845163Y772760D01*
X848301Y771460D01*
X848730D01*
Y778730D01*
D02*
G37*
G36*
X833540D02*
X826270D01*
Y771460D01*
X826699D01*
X829837Y772760D01*
X832240Y775163D01*
X833540Y778301D01*
Y778730D01*
D02*
G37*
G36*
X823730D02*
X816460D01*
Y778301D01*
X817760Y775163D01*
X820163Y772760D01*
X823301Y771460D01*
X823730D01*
Y778730D01*
D02*
G37*
G36*
X410020Y788820D02*
X389980D01*
Y768780D01*
X410020D01*
Y788820D01*
D02*
G37*
G36*
X851699Y768540D02*
X851270D01*
Y761270D01*
X858540D01*
Y761699D01*
X857240Y764837D01*
X854837Y767240D01*
X851699Y768540D01*
D02*
G37*
G36*
X848730D02*
X848301D01*
X845163Y767240D01*
X842760Y764837D01*
X841460Y761699D01*
Y761270D01*
X848730D01*
Y768540D01*
D02*
G37*
G36*
X826699D02*
X826270D01*
Y761270D01*
X833540D01*
Y761699D01*
X832240Y764837D01*
X829837Y767240D01*
X826699Y768540D01*
D02*
G37*
G36*
X823730D02*
X823301D01*
X820163Y767240D01*
X817760Y764837D01*
X816460Y761699D01*
Y761270D01*
X823730D01*
Y768540D01*
D02*
G37*
G36*
X762970Y753730D02*
X758770D01*
Y749530D01*
X760638Y750303D01*
X762197Y751862D01*
X762970Y753730D01*
D02*
G37*
G36*
X858540Y758730D02*
X841460D01*
Y758301D01*
X842760Y755163D01*
X845163Y752760D01*
X847149Y751937D01*
Y750563D01*
X845163Y749740D01*
X842760Y747337D01*
X841460Y744199D01*
Y743770D01*
X858540D01*
Y744199D01*
X857240Y747337D01*
X854837Y749740D01*
X852851Y750563D01*
Y751937D01*
X854837Y752760D01*
X857240Y755163D01*
X858540Y758301D01*
Y758730D01*
D02*
G37*
G36*
X833540D02*
X816460D01*
Y758301D01*
X817760Y755163D01*
X820163Y752760D01*
X822149Y751937D01*
Y750563D01*
X820163Y749740D01*
X817760Y747337D01*
X816460Y744199D01*
Y743770D01*
X833540D01*
Y744199D01*
X832240Y747337D01*
X829837Y749740D01*
X827851Y750563D01*
Y751937D01*
X829837Y752760D01*
X832240Y755163D01*
X833540Y758301D01*
Y758730D01*
D02*
G37*
G36*
X858540Y741230D02*
X851270D01*
Y733960D01*
X851699D01*
X854837Y735260D01*
X857240Y737663D01*
X858540Y740801D01*
Y741230D01*
D02*
G37*
G36*
X848730D02*
X841460D01*
Y740801D01*
X842760Y737663D01*
X845163Y735260D01*
X848301Y733960D01*
X848730D01*
Y741230D01*
D02*
G37*
G36*
X833540D02*
X826270D01*
Y733960D01*
X826699D01*
X829837Y735260D01*
X832240Y737663D01*
X833540Y740801D01*
Y741230D01*
D02*
G37*
G36*
X823730D02*
X816460D01*
Y740801D01*
X817760Y737663D01*
X820163Y735260D01*
X823301Y733960D01*
X823730D01*
Y741230D01*
D02*
G37*
G36*
X696230Y726230D02*
X692030D01*
X692803Y724362D01*
X694362Y722803D01*
X696230Y722030D01*
Y726230D01*
D02*
G37*
G36*
X851699Y728540D02*
X851270D01*
Y721270D01*
X858540D01*
Y721699D01*
X857240Y724837D01*
X854837Y727240D01*
X851699Y728540D01*
D02*
G37*
G36*
X848730D02*
X848301D01*
X845163Y727240D01*
X842760Y724837D01*
X841460Y721699D01*
Y721270D01*
X848730D01*
Y728540D01*
D02*
G37*
G36*
X826699D02*
X826270D01*
Y721270D01*
X833540D01*
Y721699D01*
X832240Y724837D01*
X829837Y727240D01*
X826699Y728540D01*
D02*
G37*
G36*
X823730D02*
X823301D01*
X820163Y727240D01*
X817760Y724837D01*
X816460Y721699D01*
Y721270D01*
X823730D01*
Y728540D01*
D02*
G37*
G36*
X858540Y718730D02*
X851270D01*
Y711460D01*
X851699D01*
X854837Y712760D01*
X857240Y715163D01*
X858540Y718301D01*
Y718730D01*
D02*
G37*
G36*
X848730D02*
X841460D01*
Y718301D01*
X842760Y715163D01*
X845163Y712760D01*
X848301Y711460D01*
X848730D01*
Y718730D01*
D02*
G37*
G36*
X833540D02*
X826270D01*
Y711460D01*
X826699D01*
X829837Y712760D01*
X832240Y715163D01*
X833540Y718301D01*
Y718730D01*
D02*
G37*
G36*
X823730D02*
X816460D01*
Y718301D01*
X817760Y715163D01*
X820163Y712760D01*
X823301Y711460D01*
X823730D01*
Y718730D01*
D02*
G37*
G36*
X580899Y739520D02*
X579101D01*
X577440Y738832D01*
X576168Y737560D01*
X575480Y735899D01*
Y734101D01*
X576168Y732440D01*
X576731Y731877D01*
Y726757D01*
X577689Y724446D01*
X579446Y722689D01*
X581757Y721731D01*
X629231D01*
Y710623D01*
X628668Y710060D01*
X627980Y708399D01*
Y706601D01*
X628668Y704940D01*
X629069Y704539D01*
X628543Y703269D01*
X603123D01*
X602560Y703832D01*
X600899Y704520D01*
X599101D01*
X597440Y703832D01*
X596168Y702560D01*
X595480Y700899D01*
Y699101D01*
X596168Y697440D01*
X597440Y696168D01*
X599101Y695480D01*
X600899D01*
X602560Y696168D01*
X603123Y696731D01*
X634956D01*
X637267Y697689D01*
X643810Y704231D01*
X646877D01*
X647440Y703668D01*
X649101Y702980D01*
X650899D01*
X652560Y703668D01*
X653123Y704231D01*
X711877D01*
X712440Y703668D01*
X714101Y702980D01*
X715899D01*
X717560Y703668D01*
X718832Y704940D01*
X719520Y706601D01*
Y708399D01*
X718832Y710060D01*
X717560Y711332D01*
X715899Y712020D01*
X714101D01*
X712440Y711332D01*
X711877Y710769D01*
X653123D01*
X652560Y711332D01*
X650899Y712020D01*
X649101D01*
X647440Y711332D01*
X646877Y710769D01*
X642456D01*
X640145Y709811D01*
X638193Y707860D01*
X637020Y708346D01*
Y708399D01*
X636332Y710060D01*
X635769Y710623D01*
Y723243D01*
X634811Y725554D01*
X633054Y727311D01*
X630743Y728269D01*
X583269D01*
Y731877D01*
X583832Y732440D01*
X584520Y734101D01*
Y735899D01*
X583832Y737560D01*
X582560Y738832D01*
X580899Y739520D01*
D02*
G37*
G36*
X851699Y708540D02*
X851270D01*
Y701270D01*
X858540D01*
Y701699D01*
X857240Y704837D01*
X854837Y707240D01*
X851699Y708540D01*
D02*
G37*
G36*
X848730D02*
X848301D01*
X845163Y707240D01*
X842760Y704837D01*
X841460Y701699D01*
Y701270D01*
X848730D01*
Y708540D01*
D02*
G37*
G36*
X826699D02*
X826270D01*
Y701270D01*
X833540D01*
Y701699D01*
X832240Y704837D01*
X829837Y707240D01*
X826699Y708540D01*
D02*
G37*
G36*
X823730D02*
X823301D01*
X820163Y707240D01*
X817760Y704837D01*
X816460Y701699D01*
Y701270D01*
X823730D01*
Y708540D01*
D02*
G37*
G36*
X553399Y702020D02*
X551601D01*
X549940Y701332D01*
X549377Y700769D01*
X535623D01*
X535060Y701332D01*
X533399Y702020D01*
X531601D01*
X529940Y701332D01*
X528668Y700060D01*
X527980Y698399D01*
Y696601D01*
X528668Y694940D01*
X529940Y693668D01*
X531601Y692980D01*
X533399D01*
X535060Y693668D01*
X535623Y694231D01*
X549377D01*
X549940Y693668D01*
X551601Y692980D01*
X553399D01*
X555060Y693668D01*
X556332Y694940D01*
X557020Y696601D01*
Y698399D01*
X556332Y700060D01*
X555060Y701332D01*
X553399Y702020D01*
D02*
G37*
G36*
X419199Y696040D02*
X418770D01*
Y688770D01*
X426040D01*
Y689199D01*
X424740Y692337D01*
X422337Y694740D01*
X419199Y696040D01*
D02*
G37*
G36*
X416230D02*
X415801D01*
X412663Y694740D01*
X410260Y692337D01*
X408960Y689199D01*
Y688770D01*
X416230D01*
Y696040D01*
D02*
G37*
G36*
X858540Y698730D02*
X841460D01*
Y698301D01*
X842760Y695163D01*
X845163Y692760D01*
X847149Y691937D01*
Y690563D01*
X845163Y689740D01*
X842760Y687337D01*
X841460Y684199D01*
Y683770D01*
X858540D01*
Y684199D01*
X857240Y687337D01*
X854837Y689740D01*
X852851Y690563D01*
Y691937D01*
X854837Y692760D01*
X857240Y695163D01*
X858540Y698301D01*
Y698730D01*
D02*
G37*
G36*
X833540D02*
X816460D01*
Y698301D01*
X817760Y695163D01*
X820163Y692760D01*
X822149Y691937D01*
Y690563D01*
X820163Y689740D01*
X817760Y687337D01*
X816460Y684199D01*
Y683770D01*
X833540D01*
Y684199D01*
X832240Y687337D01*
X829837Y689740D01*
X827851Y690563D01*
Y691937D01*
X829837Y692760D01*
X832240Y695163D01*
X833540Y698301D01*
Y698730D01*
D02*
G37*
G36*
X464199Y691040D02*
X463770D01*
Y683770D01*
X471040D01*
Y684199D01*
X469740Y687337D01*
X467337Y689740D01*
X464199Y691040D01*
D02*
G37*
G36*
X461230D02*
X460801D01*
X457663Y689740D01*
X455260Y687337D01*
X453960Y684199D01*
Y683770D01*
X461230D01*
Y691040D01*
D02*
G37*
G36*
X426040Y686230D02*
X418770D01*
Y678960D01*
X419199D01*
X422337Y680260D01*
X424740Y682663D01*
X426040Y685801D01*
Y686230D01*
D02*
G37*
G36*
X416230D02*
X408960D01*
Y685801D01*
X410260Y682663D01*
X412663Y680260D01*
X415801Y678960D01*
X416230D01*
Y686230D01*
D02*
G37*
G36*
X858540Y681230D02*
X851270D01*
Y673960D01*
X851699D01*
X854837Y675260D01*
X857240Y677663D01*
X858540Y680801D01*
Y681230D01*
D02*
G37*
G36*
X848730D02*
X841460D01*
Y680801D01*
X842760Y677663D01*
X845163Y675260D01*
X848301Y673960D01*
X848730D01*
Y681230D01*
D02*
G37*
G36*
X833540D02*
X826270D01*
Y673960D01*
X826699D01*
X829837Y675260D01*
X832240Y677663D01*
X833540Y680801D01*
Y681230D01*
D02*
G37*
G36*
X823730D02*
X816460D01*
Y680801D01*
X817760Y677663D01*
X820163Y675260D01*
X823301Y673960D01*
X823730D01*
Y681230D01*
D02*
G37*
G36*
X471040D02*
X453960D01*
Y680801D01*
X455260Y677663D01*
X457663Y675260D01*
X458749Y674810D01*
X458497Y673540D01*
X458301D01*
X455163Y672240D01*
X452760Y669837D01*
X451460Y666699D01*
Y666270D01*
X468540D01*
Y666699D01*
X467240Y669837D01*
X464837Y672240D01*
X463751Y672690D01*
X464003Y673960D01*
X464199D01*
X467337Y675260D01*
X469740Y677663D01*
X471040Y680801D01*
Y681230D01*
D02*
G37*
G36*
X421699Y673540D02*
X421270D01*
Y666270D01*
X428540D01*
Y666699D01*
X427240Y669837D01*
X424837Y672240D01*
X421699Y673540D01*
D02*
G37*
G36*
X418730D02*
X418301D01*
X415163Y672240D01*
X412760Y669837D01*
X411460Y666699D01*
Y666270D01*
X418730D01*
Y673540D01*
D02*
G37*
G36*
X851699Y668540D02*
X851270D01*
Y661270D01*
X858540D01*
Y661699D01*
X857240Y664837D01*
X854837Y667240D01*
X851699Y668540D01*
D02*
G37*
G36*
X848730D02*
X848301D01*
X845163Y667240D01*
X842760Y664837D01*
X841460Y661699D01*
Y661270D01*
X848730D01*
Y668540D01*
D02*
G37*
G36*
X826699D02*
X826270D01*
Y661270D01*
X833540D01*
Y661699D01*
X832240Y664837D01*
X829837Y667240D01*
X826699Y668540D01*
D02*
G37*
G36*
X823730D02*
X823301D01*
X820163Y667240D01*
X817760Y664837D01*
X816460Y661699D01*
Y661270D01*
X823730D01*
Y668540D01*
D02*
G37*
G36*
X468540Y663730D02*
X461270D01*
Y656460D01*
X461699D01*
X464837Y657760D01*
X467240Y660163D01*
X468540Y663301D01*
Y663730D01*
D02*
G37*
G36*
X458730D02*
X451460D01*
Y663301D01*
X452760Y660163D01*
X455163Y657760D01*
X458301Y656460D01*
X458730D01*
Y663730D01*
D02*
G37*
G36*
X428540D02*
X421270D01*
Y656460D01*
X421699D01*
X424837Y657760D01*
X427240Y660163D01*
X428540Y663301D01*
Y663730D01*
D02*
G37*
G36*
X418730D02*
X411460D01*
Y663301D01*
X412760Y660163D01*
X415163Y657760D01*
X418301Y656460D01*
X418730D01*
Y663730D01*
D02*
G37*
G36*
X858540Y658730D02*
X851270D01*
Y651460D01*
X851699D01*
X854837Y652760D01*
X857240Y655163D01*
X858540Y658301D01*
Y658730D01*
D02*
G37*
G36*
X848730D02*
X841460D01*
Y658301D01*
X842760Y655163D01*
X845163Y652760D01*
X848301Y651460D01*
X848730D01*
Y658730D01*
D02*
G37*
G36*
X833540D02*
X826270D01*
Y651460D01*
X826699D01*
X829837Y652760D01*
X832240Y655163D01*
X833540Y658301D01*
Y658730D01*
D02*
G37*
G36*
X823730D02*
X816460D01*
Y658301D01*
X817760Y655163D01*
X820163Y652760D01*
X823301Y651460D01*
X823730D01*
Y658730D01*
D02*
G37*
G36*
X536699Y653540D02*
X536270D01*
Y646270D01*
X543540D01*
Y646699D01*
X542240Y649837D01*
X539837Y652240D01*
X536699Y653540D01*
D02*
G37*
G36*
X533730D02*
X533301D01*
X530163Y652240D01*
X527760Y649837D01*
X526460Y646699D01*
Y646270D01*
X533730D01*
Y653540D01*
D02*
G37*
G36*
X576699Y646040D02*
X576270D01*
Y638770D01*
X583540D01*
Y639199D01*
X582240Y642337D01*
X579837Y644740D01*
X576699Y646040D01*
D02*
G37*
G36*
X573730D02*
X573301D01*
X570163Y644740D01*
X567760Y642337D01*
X566460Y639199D01*
Y638770D01*
X573730D01*
Y646040D01*
D02*
G37*
G36*
X543540Y643730D02*
X536270D01*
Y636460D01*
X536699D01*
X539837Y637760D01*
X542240Y640163D01*
X543540Y643301D01*
Y643730D01*
D02*
G37*
G36*
X533730D02*
X526460D01*
Y643301D01*
X527760Y640163D01*
X530163Y637760D01*
X533301Y636460D01*
X533730D01*
Y643730D01*
D02*
G37*
G36*
X851699Y643540D02*
X851270D01*
Y636270D01*
X858540D01*
Y636699D01*
X857240Y639837D01*
X854837Y642240D01*
X851699Y643540D01*
D02*
G37*
G36*
X848730D02*
X848301D01*
X845163Y642240D01*
X842760Y639837D01*
X841460Y636699D01*
Y636270D01*
X848730D01*
Y643540D01*
D02*
G37*
G36*
X826699D02*
X826270D01*
Y636270D01*
X833540D01*
Y636699D01*
X832240Y639837D01*
X829837Y642240D01*
X826699Y643540D01*
D02*
G37*
G36*
X823730D02*
X823301D01*
X820163Y642240D01*
X817760Y639837D01*
X816460Y636699D01*
Y636270D01*
X823730D01*
Y643540D01*
D02*
G37*
G36*
X746230D02*
X745801D01*
X742663Y642240D01*
X740260Y639837D01*
X738960Y636699D01*
Y636270D01*
X746230D01*
Y643540D01*
D02*
G37*
G36*
X471699Y638540D02*
X471270D01*
Y631270D01*
X478540D01*
Y631699D01*
X477240Y634837D01*
X474837Y637240D01*
X471699Y638540D01*
D02*
G37*
G36*
X468730D02*
X468301D01*
X465163Y637240D01*
X462760Y634837D01*
X461460Y631699D01*
Y631270D01*
X468730D01*
Y638540D01*
D02*
G37*
G36*
X583540Y636230D02*
X576270D01*
Y628960D01*
X576699D01*
X579837Y630260D01*
X582240Y632663D01*
X583540Y635801D01*
Y636230D01*
D02*
G37*
G36*
X573730D02*
X566460D01*
Y635801D01*
X567760Y632663D01*
X570163Y630260D01*
X573301Y628960D01*
X573730D01*
Y636230D01*
D02*
G37*
G36*
X858540Y633730D02*
X851270D01*
Y626460D01*
X851699D01*
X854837Y627760D01*
X857240Y630163D01*
X858540Y633301D01*
Y633730D01*
D02*
G37*
G36*
X848730D02*
X841460D01*
Y633301D01*
X842760Y630163D01*
X845163Y627760D01*
X848301Y626460D01*
X848730D01*
Y633730D01*
D02*
G37*
G36*
X833540D02*
X826270D01*
Y626460D01*
X826699D01*
X829837Y627760D01*
X832240Y630163D01*
X833540Y633301D01*
Y633730D01*
D02*
G37*
G36*
X823730D02*
X816460D01*
Y633301D01*
X817760Y630163D01*
X820163Y627760D01*
X823301Y626460D01*
X823730D01*
Y633730D01*
D02*
G37*
G36*
X746230D02*
X738960D01*
Y633301D01*
X740260Y630163D01*
X742663Y627760D01*
X745801Y626460D01*
X746230D01*
Y633730D01*
D02*
G37*
G36*
X478540Y628730D02*
X471270D01*
Y621460D01*
X471699D01*
X474837Y622760D01*
X477240Y625163D01*
X478540Y628301D01*
Y628730D01*
D02*
G37*
G36*
X468730D02*
X461460D01*
Y628301D01*
X462760Y625163D01*
X465163Y622760D01*
X468301Y621460D01*
X468730D01*
Y628730D01*
D02*
G37*
G36*
X591230Y620470D02*
X589362Y619697D01*
X587934Y618269D01*
X577066D01*
X575638Y619697D01*
X573770Y620470D01*
Y615000D01*
Y609530D01*
X575638Y610303D01*
X577066Y611731D01*
X587934D01*
X589362Y610303D01*
X591230Y609530D01*
Y615000D01*
Y620470D01*
D02*
G37*
G36*
X593770D02*
Y616270D01*
X597970D01*
X597197Y618138D01*
X595638Y619697D01*
X593770Y620470D01*
D02*
G37*
G36*
X571230D02*
X569362Y619697D01*
X567803Y618138D01*
X567030Y616270D01*
X571230D01*
Y620470D01*
D02*
G37*
G36*
X597970Y613730D02*
X593770D01*
Y609530D01*
X595638Y610303D01*
X597197Y611862D01*
X597970Y613730D01*
D02*
G37*
G36*
X571230D02*
X567030D01*
X567803Y611862D01*
X569362Y610303D01*
X571230Y609530D01*
Y613730D01*
D02*
G37*
G36*
X425400Y617040D02*
X422600D01*
X420012Y615968D01*
X418032Y613988D01*
X416960Y611400D01*
Y608600D01*
X418032Y606012D01*
X420012Y604032D01*
X422600Y602960D01*
X425400D01*
X427988Y604032D01*
X429968Y606012D01*
X431040Y608600D01*
Y611400D01*
X429968Y613988D01*
X427988Y615968D01*
X425400Y617040D01*
D02*
G37*
G36*
X733730Y598730D02*
X729530D01*
X730303Y596862D01*
X731862Y595303D01*
X733730Y594530D01*
Y598730D01*
D02*
G37*
G36*
X735496Y586040D02*
X734570D01*
Y576270D01*
X744340D01*
Y577196D01*
X742659Y581254D01*
X739554Y584359D01*
X735496Y586040D01*
D02*
G37*
G36*
X732030D02*
X731104D01*
X727046Y584359D01*
X723941Y581254D01*
X722260Y577196D01*
Y576270D01*
X732030D01*
Y586040D01*
D02*
G37*
G36*
X662920Y585020D02*
X642880D01*
Y564980D01*
X662920D01*
Y585020D01*
D02*
G37*
G36*
X744340Y573730D02*
X734570D01*
Y563960D01*
X735496D01*
X739554Y565641D01*
X742659Y568746D01*
X744340Y572804D01*
Y573730D01*
D02*
G37*
G36*
X732030D02*
X722260D01*
Y572804D01*
X723941Y568746D01*
X727046Y565641D01*
X731104Y563960D01*
X732030D01*
Y573730D01*
D02*
G37*
G36*
X638540D02*
X628770D01*
Y563960D01*
X629696D01*
X633754Y565641D01*
X636859Y568746D01*
X638540Y572804D01*
Y573730D01*
D02*
G37*
G36*
X626230D02*
X616460D01*
Y572804D01*
X618141Y568746D01*
X621246Y565641D01*
X625304Y563960D01*
X626230D01*
Y573730D01*
D02*
G37*
G36*
X857309Y592540D02*
X852691D01*
X848230Y591345D01*
X844230Y589035D01*
X840965Y585770D01*
X838655Y581770D01*
X837460Y577309D01*
Y572691D01*
X838655Y568230D01*
X840965Y564230D01*
X844230Y560965D01*
X848230Y558655D01*
X852691Y557460D01*
X857309D01*
X861770Y558655D01*
X865770Y560965D01*
X869035Y564230D01*
X871345Y568230D01*
X872540Y572691D01*
Y577309D01*
X871345Y581770D01*
X869035Y585770D01*
X865770Y589035D01*
X861770Y591345D01*
X857309Y592540D01*
D02*
G37*
%LPD*%
G36*
X524684Y893193D02*
X524198Y892020D01*
X524101D01*
X522440Y891332D01*
X521168Y890060D01*
X520480Y888399D01*
Y886601D01*
X521168Y884940D01*
X522440Y883668D01*
X524028Y883010D01*
X524121Y882739D01*
X524208Y881710D01*
X523295Y881332D01*
X522732Y880769D01*
X505044D01*
X502733Y879811D01*
X495790Y872869D01*
X494520Y873395D01*
Y873399D01*
X493832Y875060D01*
X493269Y875623D01*
Y884377D01*
X493832Y884940D01*
X494520Y886601D01*
Y888399D01*
X493832Y890060D01*
X493431Y890461D01*
X493957Y891731D01*
X514377D01*
X514940Y891168D01*
X516601Y890480D01*
X518399D01*
X520060Y891168D01*
X521332Y892440D01*
X522020Y894101D01*
Y894198D01*
X523193Y894684D01*
X524684Y893193D01*
D02*
G37*
G36*
X595249Y822628D02*
X594529Y821552D01*
X593399Y822020D01*
X591601D01*
X589940Y821332D01*
X589377Y820769D01*
X555550D01*
X554701Y821454D01*
X554520Y821942D01*
Y823399D01*
X553832Y825060D01*
X552560Y826332D01*
X550899Y827020D01*
X549101D01*
X547440Y826332D01*
X546877Y825769D01*
X537051D01*
X536565Y826942D01*
X547603Y837980D01*
X548399D01*
X549575Y838467D01*
X550860Y838048D01*
X551072Y837884D01*
X551140Y837656D01*
X551112Y837425D01*
X550480Y835899D01*
Y834101D01*
X551168Y832440D01*
X552440Y831168D01*
X554101Y830480D01*
X555899D01*
X557560Y831168D01*
X558832Y832440D01*
X559520Y834101D01*
Y835899D01*
X558832Y837560D01*
X558269Y838123D01*
Y844956D01*
X557311Y847267D01*
X547176Y857403D01*
X547896Y858479D01*
X549101Y857980D01*
X550899D01*
X552560Y858668D01*
X553832Y859940D01*
X554520Y861601D01*
Y861698D01*
X555693Y862184D01*
X595249Y822628D01*
D02*
G37*
G36*
X502980Y869154D02*
Y869101D01*
X503668Y867440D01*
X504940Y866168D01*
X506601Y865480D01*
X508399D01*
X510060Y866168D01*
X510623Y866731D01*
X528602D01*
X547140Y848193D01*
X546654Y847020D01*
X546601D01*
X544940Y846332D01*
X543668Y845060D01*
X542980Y843399D01*
Y842603D01*
X531146Y830769D01*
X495623D01*
X495060Y831332D01*
X493399Y832020D01*
X491601D01*
X489940Y831332D01*
X489902Y831294D01*
X488729Y831780D01*
Y856562D01*
X501807Y869640D01*
X502980Y869154D01*
D02*
G37*
G36*
X587603Y760274D02*
X587623Y759507D01*
X587511Y758862D01*
X587440Y758832D01*
X586168Y757560D01*
X585480Y755899D01*
Y754101D01*
X586168Y752440D01*
X587440Y751168D01*
X589101Y750480D01*
X590899D01*
X592002Y750937D01*
X592980Y749979D01*
Y748181D01*
X593668Y746520D01*
X594940Y745248D01*
X596601Y744560D01*
X598399D01*
X600060Y745248D01*
X601332Y746520D01*
X602020Y748181D01*
Y749979D01*
X601332Y751640D01*
X600769Y752203D01*
Y761102D01*
X601807Y762140D01*
X602980Y761654D01*
Y761601D01*
X603668Y759940D01*
X604231Y759377D01*
Y741757D01*
X605189Y739446D01*
X605192Y739442D01*
X604706Y738269D01*
X595611D01*
X590685Y743196D01*
Y744580D01*
X589727Y746892D01*
X583269Y753350D01*
Y756877D01*
X583832Y757440D01*
X584520Y759101D01*
Y760899D01*
X584052Y762029D01*
X585129Y762749D01*
X587603Y760274D01*
D02*
G37*
G36*
X490189Y572689D02*
X492500Y571731D01*
X567208D01*
X568205Y569324D01*
X570531Y566999D01*
X570005Y565729D01*
X488269D01*
Y572949D01*
X489442Y573435D01*
X490189Y572689D01*
D02*
G37*
D51*
X855000Y575000D02*
D03*
X395000Y1102500D02*
D03*
D54*
X572960Y756404D02*
Y763004D01*
X580000Y751996D02*
Y760000D01*
X587416Y741842D02*
Y744580D01*
X572960Y763004D02*
X575252Y765296D01*
X573576Y748464D02*
Y755788D01*
X575252Y765296D02*
Y772708D01*
X580000Y751996D02*
X587416Y744580D01*
X572960Y756404D02*
X573576Y755788D01*
X587416Y741842D02*
X594257Y735000D01*
X573576Y748464D02*
X573752Y748288D01*
X575252Y772708D02*
X579584Y777040D01*
X582500Y770000D02*
X590044Y762456D01*
X585416Y777040D02*
X587456Y775000D01*
X579584Y777040D02*
X585416D01*
X590044Y762456D02*
X597500D01*
X618243Y775000D02*
X620000Y773243D01*
X587456Y775000D02*
X618243D01*
X659540Y864257D02*
X661297Y862500D01*
X651688Y877500D02*
X652500D01*
X649188Y880000D02*
X651688Y877500D01*
X659540Y864257D02*
Y905460D01*
X661297Y862500D02*
X672500D01*
X582500Y880000D02*
X649188D01*
X650000Y915000D02*
X659540Y905460D01*
X602500Y842500D02*
X642500D01*
X680000Y820000D02*
X732500D01*
X672500Y812500D02*
X680000Y820000D01*
X641926Y826926D02*
X642500Y827500D01*
X630000Y817500D02*
X639426Y826926D01*
X641926D01*
X567500Y766688D02*
Y767500D01*
X566712Y765900D02*
X567500Y766688D01*
X566712Y745372D02*
Y765900D01*
Y745372D02*
X570000Y742084D01*
Y730920D02*
Y742084D01*
X560460Y764584D02*
Y770416D01*
X562040Y743652D02*
Y763004D01*
X557500Y773848D02*
Y780000D01*
X555940Y772288D02*
X557500Y773848D01*
X562500Y772456D02*
Y775000D01*
X560460Y764584D02*
X562040Y763004D01*
X560460Y770416D02*
X562500Y772456D01*
Y690000D02*
Y743192D01*
X562040Y743652D02*
X562500Y743192D01*
X557500Y754257D02*
Y761152D01*
X555940Y762712D02*
Y772288D01*
Y762712D02*
X557500Y761152D01*
X580000Y726757D02*
Y735000D01*
X594257D02*
X727500D01*
X755000Y762500D01*
X597500Y749080D02*
Y762456D01*
X572500Y859257D02*
X574257Y857500D01*
X587500D01*
X602500Y842500D01*
X572500Y859257D02*
Y905000D01*
X477500Y884956D02*
X487544Y895000D01*
X477500Y820000D02*
Y884956D01*
X487544Y895000D02*
X517500D01*
X417460Y805000D02*
X462500D01*
X477500Y820000D01*
X492500Y827500D02*
X532500D01*
X485460Y824584D02*
Y857916D01*
Y824584D02*
X489584Y820460D01*
X417500Y742500D02*
X490000Y815000D01*
X422960Y740416D02*
X490044Y807500D01*
X597500D01*
X490000Y815000D02*
X552456D01*
X432000Y990500D02*
X612500Y810000D01*
X505044Y877500D02*
X525856D01*
X537040Y875460D02*
Y876272D01*
X525812Y887500D02*
X537040Y876272D01*
X525000Y887500D02*
X525812D01*
X537040Y875460D02*
X550000Y862500D01*
X490000Y872500D02*
Y887500D01*
X722500Y962500D02*
X765743D01*
X767500Y964257D02*
Y995000D01*
X765743Y962500D02*
X767500Y964257D01*
Y995000D02*
X787500Y1015000D01*
X657500Y970000D02*
X715000D01*
X722500Y962500D01*
X770000Y920757D02*
X771757Y919000D01*
X770000Y920757D02*
Y953243D01*
X771757Y919000D02*
X820000D01*
X685000Y955000D02*
X768243D01*
X770000Y953243D01*
X820000Y847100D02*
X842500D01*
X807100D02*
X820000D01*
X820000Y847100D01*
Y919000D01*
X760000Y645743D02*
X761757Y647500D01*
X795743D01*
X758700Y575000D02*
X760000Y576300D01*
Y645743D01*
X795743Y647500D02*
X797500Y649257D01*
Y837500D01*
X807100Y847100D01*
X672500Y797500D02*
Y812500D01*
X670743Y835000D02*
X672500Y833243D01*
X622500Y835000D02*
X670743D01*
X672500Y822500D02*
Y833243D01*
X615000Y827500D02*
X622500Y835000D01*
X551757Y797500D02*
X587500D01*
X577960Y790460D02*
X615460D01*
X554956Y817500D02*
X592500D01*
X552456Y815000D02*
X554956Y817500D01*
X417500Y730000D02*
Y742500D01*
X430000Y737500D02*
X490044D01*
X422960Y734584D02*
Y740416D01*
X483243Y726804D02*
X485000Y725046D01*
X457758Y726804D02*
X483243D01*
X421560Y725940D02*
X456894D01*
X457758Y726804D01*
X417500Y730000D02*
X421560Y725940D01*
X422960Y734584D02*
X427084Y730460D01*
X452500Y745000D02*
X555000D01*
X455022Y730460D02*
X457062Y732500D01*
X485000D01*
X490000Y727500D01*
X427084Y730460D02*
X455022D01*
X492084Y739540D02*
X497916D01*
X490044Y737500D02*
X492084Y739540D01*
X485000Y564217D02*
Y725046D01*
X496757Y590000D02*
X680743D01*
X495000Y591757D02*
Y732500D01*
Y591757D02*
X496757Y590000D01*
X550000Y795743D02*
X551757Y797500D01*
X562500Y775000D02*
X577960Y790460D01*
X615460D02*
X627500Y802500D01*
X550000Y779257D02*
Y795743D01*
X496757Y777500D02*
X548243D01*
X550000Y779257D01*
X495000Y755000D02*
Y775743D01*
X496757Y777500D01*
X499956Y737500D02*
X542500D01*
X497916Y739540D02*
X499956Y737500D01*
X490000Y577500D02*
Y727500D01*
X485000Y564217D02*
X486757Y562460D01*
X490000Y577500D02*
X492500Y575000D01*
X576700D01*
X680743Y590000D02*
X682500Y588243D01*
X512540Y599717D02*
X514757Y597500D01*
X512540Y599717D02*
Y651807D01*
X514757Y597500D02*
X647500D01*
X682500Y575000D02*
Y588243D01*
X486757Y562460D02*
X598203D01*
X600000Y564257D02*
Y572900D01*
X598203Y562460D02*
X600000Y564257D01*
Y572900D02*
X602100Y575000D01*
X647500Y597500D02*
X652500Y602500D01*
Y610743D02*
X654257Y612500D01*
X706143D01*
X652500Y602500D02*
Y610743D01*
X706143Y612500D02*
X707900Y610743D01*
Y575000D02*
Y610743D01*
X645000Y605000D02*
Y615743D01*
X646757Y617500D02*
X733243D01*
X645000Y615743D02*
X646757Y617500D01*
X652500Y625000D02*
X707500D01*
X733243Y617500D02*
X735000Y615743D01*
X707500Y625000D02*
X717500Y635000D01*
X735000Y600000D02*
Y615743D01*
X512500Y651847D02*
X512540Y651807D01*
X512500Y651847D02*
Y705000D01*
Y752500D02*
X555743D01*
X557500Y754257D01*
Y780000D02*
X565000Y787500D01*
X421000Y990500D02*
X432000D01*
X580000Y897500D02*
Y920000D01*
X485460Y857916D02*
X505044Y877500D01*
X489584Y820460D02*
X518366D01*
X520406Y822500D01*
X550000D01*
X529956Y870000D02*
X555000Y844956D01*
Y835000D02*
Y844956D01*
X507500Y870000D02*
X529956D01*
X532500Y827500D02*
X547500Y842500D01*
X532500Y697500D02*
X552500D01*
X620000Y751757D02*
Y773243D01*
X614540Y745460D02*
X720460D01*
X610460Y769540D02*
X612500Y767500D01*
Y767456D02*
Y767500D01*
X720460Y745460D02*
X747500Y772500D01*
X604584Y769540D02*
X610460D01*
X612500Y767456D02*
X614540Y765416D01*
Y745460D02*
Y765416D01*
X607500Y741757D02*
Y762500D01*
X621757Y750000D02*
X717546D01*
X620000Y751757D02*
X621757Y750000D01*
X580000Y726757D02*
X581757Y725000D01*
X630743D01*
X632500Y723243D01*
X485000Y755000D02*
Y770000D01*
X700000Y787500D02*
X757500D01*
X717500Y635000D02*
Y675000D01*
X419000Y992500D02*
X421000Y990500D01*
X600000Y700000D02*
X634956D01*
X717546Y750000D02*
X719304Y751757D01*
Y751804D01*
X745000Y777500D01*
X787500D01*
X790000Y662500D02*
Y775000D01*
X787500Y777500D02*
X790000Y775000D01*
X780743Y655000D02*
X782500Y656757D01*
Y770000D01*
X735000Y655000D02*
X780743D01*
X780000Y772500D02*
X782500Y770000D01*
X747500Y772500D02*
X780000D01*
X750000Y767500D02*
X772500D01*
X775000Y765000D01*
X770000Y681757D02*
Y760743D01*
X755000Y762500D02*
X768243D01*
X730000Y727500D02*
X757500Y755000D01*
X768243Y762500D02*
X770000Y760743D01*
X722500Y740000D02*
X750000Y767500D01*
X775000Y678107D02*
Y765000D01*
X609257Y740000D02*
X722500D01*
X607500Y741757D02*
X609257Y740000D01*
X597500Y762456D02*
X604584Y769540D01*
X697500Y727500D02*
X730000D01*
X770000Y673107D02*
X775000Y678107D01*
X770000Y672500D02*
Y673107D01*
X768243Y680000D02*
X770000Y681757D01*
X760000Y680000D02*
X768243D01*
X634956Y700000D02*
X642456Y707500D01*
X650000D01*
X715000D01*
X572500Y615000D02*
X592500D01*
X602500Y636757D02*
X606757Y632500D01*
X602500Y636757D02*
Y650000D01*
X606757Y632500D02*
X642500D01*
X562500Y690000D02*
X602500Y650000D01*
X632500Y707500D02*
Y723243D01*
X692500Y1082500D02*
X707500Y1097500D01*
X760000D01*
X592500Y1075000D02*
X607500D01*
D55*
X400000Y880400D02*
D03*
Y855000D02*
D03*
Y804200D02*
D03*
Y829600D02*
D03*
X842500Y847100D02*
D03*
Y872500D02*
D03*
X682500Y575000D02*
D03*
X733300D02*
D03*
X707900D02*
D03*
X576700D02*
D03*
X627500D02*
D03*
X602100D02*
D03*
X495000Y992500D02*
D03*
X419000D02*
D03*
D56*
X400000Y778800D02*
D03*
X842500Y821700D02*
D03*
D57*
X820000Y1015000D02*
D03*
Y1050000D02*
D03*
Y919000D02*
D03*
Y954000D02*
D03*
D58*
X758700Y575000D02*
D03*
X652900D02*
D03*
D59*
X573752Y748288D02*
D03*
X580000Y760000D02*
D03*
X582500Y770000D02*
D03*
X652500Y877500D02*
D03*
X642500Y842500D02*
D03*
X732500Y820000D02*
D03*
X642500Y827500D02*
D03*
X567500Y767500D02*
D03*
X580000Y735000D02*
D03*
X597500Y749080D02*
D03*
X590000Y755000D02*
D03*
X570000Y730920D02*
D03*
X572500Y905000D02*
D03*
X517500Y895000D02*
D03*
X492500Y827500D02*
D03*
X417460Y805000D02*
D03*
X582500Y880000D02*
D03*
X525856Y877500D02*
D03*
X550000Y862500D02*
D03*
X525000Y887500D02*
D03*
X490000D02*
D03*
Y872500D02*
D03*
X787500Y1015000D02*
D03*
X722500Y962500D02*
D03*
X657500Y970000D02*
D03*
X685000Y955000D02*
D03*
X672500Y797500D02*
D03*
X612500Y810000D02*
D03*
X672500Y822500D02*
D03*
X615000Y827500D02*
D03*
X587500Y797500D02*
D03*
X630000Y817500D02*
D03*
X592500D02*
D03*
X430000Y737500D02*
D03*
X597500Y807500D02*
D03*
X452500Y745000D02*
D03*
X495000Y755000D02*
D03*
Y732500D02*
D03*
X645000Y605000D02*
D03*
X652500Y625000D02*
D03*
X512500Y705000D02*
D03*
Y752500D02*
D03*
X565000Y787500D02*
D03*
X580000Y920000D02*
D03*
Y897500D02*
D03*
X550000Y822500D02*
D03*
X555000Y835000D02*
D03*
X507500Y870000D02*
D03*
X547500Y842500D02*
D03*
X552500Y697500D02*
D03*
X532500D02*
D03*
X607500Y762500D02*
D03*
X555000Y745000D02*
D03*
X542500Y737500D02*
D03*
X485000Y770000D02*
D03*
Y755000D02*
D03*
X757500Y787500D02*
D03*
X700000D02*
D03*
X717500Y675000D02*
D03*
X627500Y802500D02*
D03*
X600000Y700000D02*
D03*
X790000Y662500D02*
D03*
X735000Y655000D02*
D03*
X757500Y755000D02*
D03*
X697500Y727500D02*
D03*
X770000Y672500D02*
D03*
X672500Y862500D02*
D03*
X650000Y915000D02*
D03*
X760000Y680000D02*
D03*
X735000Y600000D02*
D03*
X715000Y707500D02*
D03*
X650000D02*
D03*
X592500Y615000D02*
D03*
X572500D02*
D03*
X642500Y632500D02*
D03*
X562500Y690000D02*
D03*
X632500Y707500D02*
D03*
X692500Y1082500D02*
D03*
X760000Y1097500D02*
D03*
X607500Y1075000D02*
D03*
X592500D02*
D03*
D60*
X850000Y660000D02*
D03*
Y682500D02*
D03*
X825000Y635000D02*
D03*
Y700000D02*
D03*
Y682500D02*
D03*
Y742500D02*
D03*
Y720000D02*
D03*
Y660000D02*
D03*
Y780000D02*
D03*
Y760000D02*
D03*
X842500Y1050000D02*
D03*
X845000Y965000D02*
D03*
X670000Y877500D02*
D03*
X780000Y835000D02*
D03*
X770000Y852500D02*
D03*
X765000Y902500D02*
D03*
X775000Y880000D02*
D03*
X802500D02*
D03*
X850000Y635000D02*
D03*
Y700000D02*
D03*
Y720000D02*
D03*
Y742500D02*
D03*
Y760000D02*
D03*
Y780000D02*
D03*
X760000Y802500D02*
D03*
X747500Y607500D02*
D03*
Y635000D02*
D03*
X575000Y637500D02*
D03*
X470000Y630000D02*
D03*
X535000Y645000D02*
D03*
X460000Y665000D02*
D03*
X462500Y682500D02*
D03*
X420000Y665000D02*
D03*
X417500Y687500D02*
D03*
X425000Y842500D02*
D03*
X452500Y840000D02*
D03*
X450000Y822500D02*
D03*
X600000Y965000D02*
D03*
Y990000D02*
D03*
Y1015000D02*
D03*
Y1040000D02*
D03*
X587500Y1087500D02*
D03*
X530000Y1070000D02*
D03*
X522500Y1097500D02*
D03*
X505000D02*
D03*
X487500D02*
D03*
X470000D02*
D03*
X452500D02*
D03*
X432500D02*
D03*
M02*
